<svg width="15" height="15" viewBox="0 0 15 15" fill="none" xmlns="http://www.w3.org/2000/svg">
<g clip-path="url(#clip0_545_2913)">
<path d="M10.6234 11.4751L3.38587 4.23755C2.78027 5.08377 2.4261 6.12195 2.4261 7.24394C2.4261 10.1097 4.75118 12.4348 7.61699 12.4348C8.73898 12.4348 9.77716 12.0807 10.6234 11.4751ZM11.8481 10.2503C12.4537 9.40411 12.8079 8.36593 12.8079 7.24394C12.8079 4.37814 10.4828 2.05305 7.61699 2.05305C6.495 2.05305 5.45682 2.40722 4.6106 3.01282L11.8481 10.2503ZM0.695801 7.24394C0.695801 5.40833 1.425 3.6479 2.72297 2.34992C4.02094 1.05195 5.78137 0.322754 7.61699 0.322754C9.4526 0.322754 11.213 1.05195 12.511 2.34992C13.809 3.6479 14.5382 5.40833 14.5382 7.24394C14.5382 9.07955 13.809 10.84 12.511 12.138C11.213 13.4359 9.4526 14.1651 7.61699 14.1651C5.78137 14.1651 4.02094 13.4359 2.72297 12.138C1.425 10.84 0.695801 9.07955 0.695801 7.24394Z" fill="#F97316"/>
</g>
<defs>
<clipPath id="clip0_545_2913">
<path d="M0.695801 0.322754H14.5382V14.1651H0.695801V0.322754Z" fill="white"/>
</clipPath>
</defs>
</svg>
