<svg width="15" height="15" viewBox="0 0 15 15" fill="none" xmlns="http://www.w3.org/2000/svg">
<g clip-path="url(#clip0_545_2856)">
<path d="M7.61697 1.08862C8.00088 1.08862 8.35505 1.29139 8.54971 1.62393L14.3895 11.5731C14.5868 11.9084 14.5868 12.322 14.3949 12.6573C14.2029 12.9925 13.8433 13.2007 13.4567 13.2007H1.77722C1.3906 13.2007 1.03102 12.9925 0.83907 12.6573C0.647115 12.322 0.649818 11.9057 0.844477 11.5731L6.68423 1.62393C6.87889 1.29139 7.23306 1.08862 7.61697 1.08862ZM7.61697 4.54922C7.25739 4.54922 6.96811 4.8385 6.96811 5.19808V8.2261C6.96811 8.58567 7.25739 8.87496 7.61697 8.87496C7.97654 8.87496 8.26583 8.58567 8.26583 8.2261V5.19808C8.26583 4.8385 7.97654 4.54922 7.61697 4.54922ZM8.48212 10.6053C8.48212 10.3758 8.39097 10.1558 8.22872 9.9935C8.06647 9.83126 7.84642 9.74011 7.61697 9.74011C7.38752 9.74011 7.16746 9.83126 7.00521 9.9935C6.84297 10.1558 6.75182 10.3758 6.75182 10.6053C6.75182 10.8347 6.84297 11.0548 7.00521 11.217C7.16746 11.3793 7.38752 11.4704 7.61697 11.4704C7.84642 11.4704 8.06647 11.3793 8.22872 11.217C8.39097 11.0548 8.48212 10.8347 8.48212 10.6053Z" fill="#EF4444"/>
</g>
<defs>
<clipPath id="clip0_545_2856">
<path d="M0.695801 0.223511H14.5382V14.0659H0.695801V0.223511Z" fill="white"/>
</clipPath>
</defs>
</svg>
