<svg width="15" height="15" viewBox="0 0 15 15" fill="none" xmlns="http://www.w3.org/2000/svg">
<g clip-path="url(#clip0_504_1577)">
<path d="M8.60938 1.625C8.60938 1.14102 8.21836 0.75 7.73438 0.75C7.25039 0.75 6.85938 1.14102 6.85938 1.625V8.26133L4.85234 6.2543C4.51055 5.9125 3.95547 5.9125 3.61367 6.2543C3.27188 6.59609 3.27188 7.15117 3.61367 7.49297L7.11367 10.993C7.45547 11.3348 8.01055 11.3348 8.35234 10.993L11.8523 7.49297C12.1941 7.15117 12.1941 6.59609 11.8523 6.2543C11.5105 5.9125 10.9555 5.9125 10.6137 6.2543L8.60938 8.26133V1.625ZM2.48438 10.375C1.51914 10.375 0.734375 11.1598 0.734375 12.125V13C0.734375 13.9652 1.51914 14.75 2.48438 14.75H12.9844C13.9496 14.75 14.7344 13.9652 14.7344 13V12.125C14.7344 11.1598 13.9496 10.375 12.9844 10.375H10.209L8.97031 11.6137C8.28672 12.2973 7.1793 12.2973 6.4957 11.6137L5.25977 10.375H2.48438ZM12.5469 11.9062C12.7209 11.9062 12.8878 11.9754 13.0109 12.0985C13.134 12.2215 13.2031 12.3885 13.2031 12.5625C13.2031 12.7365 13.134 12.9035 13.0109 13.0265C12.8878 13.1496 12.7209 13.2188 12.5469 13.2188C12.3728 13.2188 12.2059 13.1496 12.0828 13.0265C11.9598 12.9035 11.8906 12.7365 11.8906 12.5625C11.8906 12.3885 11.9598 12.2215 12.0828 12.0985C12.2059 11.9754 12.3728 11.9062 12.5469 11.9062Z" fill="#4B5563"/>
</g>
<defs>
<clipPath id="clip0_504_1577">
<path d="M0.734375 0.75H14.7344V14.75H0.734375V0.75Z" fill="white"/>
</clipPath>
</defs>
</svg>
