<svg width="20" height="17" viewBox="0 0 20 17" fill="none" xmlns="http://www.w3.org/2000/svg">
<g clip-path="url(#clip0_2277_3022)">
<path d="M19.0781 12.1656C19.1594 11.725 19.1594 11.275 19.0781 10.8344L19.8844 10.3687C19.9781 10.3156 20.0187 10.2062 19.9875 10.1031C19.7781 9.42812 19.4188 8.81563 18.95 8.30937C18.8781 8.23125 18.7625 8.2125 18.6688 8.26562L17.8625 8.73125C17.5219 8.44062 17.1313 8.21563 16.7094 8.06563V7.13438C16.7094 7.02813 16.6344 6.93437 16.5312 6.9125C15.8344 6.75625 15.125 6.7625 14.4625 6.9125C14.3594 6.93437 14.2844 7.02813 14.2844 7.13438V8.06563C13.8625 8.21563 13.4719 8.44062 13.1313 8.73125L12.325 8.26562C12.2344 8.2125 12.1156 8.23125 12.0437 8.30937C11.575 8.81563 11.2156 9.42812 11.0063 10.1031C10.975 10.2062 11.0188 10.3156 11.1094 10.3687L11.9156 10.8344C11.8344 11.275 11.8344 11.725 11.9156 12.1656L11.1094 12.6313C11.0156 12.6844 10.975 12.7938 11.0063 12.8969C11.2156 13.5719 11.575 14.1813 12.0437 14.6906C12.1156 14.7688 12.2312 14.7875 12.325 14.7344L13.1313 14.2688C13.4719 14.5594 13.8625 14.7844 14.2844 14.9344V15.8656C14.2844 15.9719 14.3594 16.0656 14.4625 16.0875C15.1594 16.2437 15.8687 16.2375 16.5312 16.0875C16.6344 16.0656 16.7094 15.9719 16.7094 15.8656V14.9344C17.1313 14.7844 17.5219 14.5594 17.8625 14.2688L18.6688 14.7344C18.7594 14.7875 18.8781 14.7688 18.95 14.6906C19.4188 14.1844 19.7781 13.5719 19.9875 12.8969C20.0187 12.7938 19.975 12.6844 19.8844 12.6313L19.0781 12.1656ZM15.5 13.0156C14.6625 13.0156 13.9844 12.3344 13.9844 11.5C13.9844 10.6656 14.6656 9.98438 15.5 9.98438C16.3344 9.98438 17.0156 10.6656 17.0156 11.5C17.0156 12.3344 16.3375 13.0156 15.5 13.0156ZM7 8.5C9.20938 8.5 11 6.70937 11 4.5C11 2.29063 9.20938 0.5 7 0.5C4.79063 0.5 3 2.29063 3 4.5C3 6.70937 4.79063 8.5 7 8.5ZM13.2875 15.5781C13.2156 15.5406 13.1438 15.4969 13.075 15.4563L12.8281 15.6C12.6406 15.7063 12.4281 15.7656 12.2156 15.7656C11.875 15.7656 11.5469 15.6219 11.3125 15.3719C10.7406 14.7531 10.3031 14 10.0562 13.1969C9.88437 12.6437 10.1156 12.0594 10.6156 11.7688L10.8625 11.625C10.8594 11.5437 10.8594 11.4625 10.8625 11.3813L10.6156 11.2375C10.1156 10.95 9.88437 10.3625 10.0562 9.80937C10.0844 9.71875 10.125 9.62813 10.1562 9.5375C10.0375 9.52813 9.92188 9.5 9.8 9.5H9.27812C8.58437 9.81875 7.8125 10 7 10C6.1875 10 5.41875 9.81875 4.72188 9.5H4.2C1.88125 9.5 0 11.3813 0 13.7V15C0 15.8281 0.671875 16.5 1.5 16.5H12.5C12.8156 16.5 13.1094 16.4 13.35 16.2344C13.3125 16.1156 13.2875 15.9938 13.2875 15.8656V15.5781Z" fill="black"/>
</g>
<defs>
<clipPath id="clip0_2277_3022">
<rect width="20" height="16" fill="white" transform="translate(0 0.5)"/>
</clipPath>
</defs>
</svg>
