<svg width="18" height="20" viewBox="0 0 18 20" fill="none" xmlns="http://www.w3.org/2000/svg">
<path fill-rule="evenodd" clip-rule="evenodd" d="M14.07 11.3017C14.1766 11.1181 14.3492 10.982 14.5527 10.9214C14.7561 10.8607 14.9751 10.88 15.1648 10.9752C15.3545 11.0705 15.5007 11.2347 15.5736 11.4341C15.6464 11.6335 15.6404 11.8533 15.5567 12.0484L15.5133 12.1351L15.2342 12.6184C15.4007 12.8137 15.5362 13.0335 15.6358 13.2701L15.6908 13.4109H16.25C16.4624 13.4111 16.6667 13.4925 16.8211 13.6383C16.9756 13.7841 17.0685 13.9833 17.081 14.1954C17.0934 14.4074 17.0244 14.6162 16.8881 14.7791C16.7518 14.942 16.5584 15.0466 16.3475 15.0717L16.25 15.0776H15.6908C15.6093 15.3087 15.4941 15.5266 15.3492 15.7242L15.2342 15.8692L15.5133 16.3534C15.6205 16.5375 15.653 16.7557 15.6043 16.9631C15.5555 17.1705 15.4292 17.3514 15.2513 17.4686C15.0733 17.5857 14.8572 17.6302 14.6474 17.593C14.4377 17.5558 14.2501 17.4396 14.1233 17.2684L14.07 17.1867L13.7908 16.7034C13.5467 16.7484 13.2992 16.7559 13.0575 16.7284L12.8767 16.7017L12.5967 17.1867C12.4901 17.3704 12.3175 17.5064 12.114 17.5671C11.9105 17.6278 11.6916 17.6085 11.5019 17.5132C11.3121 17.4179 11.1659 17.2538 11.0931 17.0543C11.0203 16.8549 11.0263 16.6352 11.11 16.4401L11.1533 16.3534L11.4325 15.8692C11.2661 15.6744 11.1306 15.4552 11.0308 15.2192L10.9758 15.0776H10.4167C10.2043 15.0773 9.99997 14.996 9.84553 14.8502C9.69108 14.7044 9.59814 14.5051 9.58569 14.2931C9.57324 14.081 9.64223 13.8722 9.77855 13.7094C9.91488 13.5465 10.1083 13.4418 10.3192 13.4167L10.4167 13.4109H10.9767C11.0582 13.1798 11.1734 12.9619 11.3183 12.7642L11.4325 12.6192L11.1533 12.1351C11.0462 11.9509 11.0136 11.7327 11.0624 11.5253C11.1111 11.3179 11.2375 11.137 11.4154 11.0199C11.5934 10.9027 11.8094 10.8582 12.0192 10.8954C12.229 10.9327 12.4165 11.0488 12.5433 11.2201L12.5967 11.3017L12.8758 11.7851C13.12 11.7401 13.3675 11.7326 13.6092 11.7601L13.79 11.7859L14.07 11.3017ZM7.5 10.0776C7.87278 10.0776 8.23833 10.097 8.59667 10.1359C8.81646 10.1592 9.018 10.2689 9.15693 10.4408C9.29586 10.6127 9.36082 10.8328 9.3375 11.0526C9.31418 11.2724 9.20451 11.4739 9.0326 11.6128C8.86069 11.7518 8.64063 11.8167 8.42083 11.7934C8.12028 11.7606 7.81333 11.7442 7.5 11.7442C5.81417 11.7442 4.2975 12.2359 3.22 12.8934C2.68083 13.2217 2.27417 13.5784 2.01167 13.9117C1.74167 14.2534 1.66667 14.5117 1.66667 14.6609C1.66667 14.7626 1.6975 14.8701 1.87917 15.0159C2.08667 15.1826 2.4475 15.3551 2.99917 15.5009C4.0975 15.7926 5.67583 15.9109 7.5 15.9109L8.04833 15.9067C8.26935 15.9037 8.48249 15.9887 8.64088 16.1428C8.79927 16.297 8.88993 16.5078 8.89292 16.7288C8.8959 16.9498 8.81096 17.163 8.65679 17.3214C8.50262 17.4797 8.29185 17.5704 8.07083 17.5734L7.5 17.5776C5.6425 17.5776 3.8875 17.4609 2.5725 17.1126C1.91833 16.9392 1.3025 16.6909 0.835833 16.3159C0.341667 15.9192 0 15.3651 0 14.6609C0 14.0051 0.298333 13.3917 0.703333 12.8784C1.115 12.3576 1.68417 11.8784 2.35167 11.4701C3.6875 10.6567 5.50417 10.0776 7.5 10.0776ZM13.3333 13.4109C13.1123 13.4109 12.9004 13.4987 12.7441 13.655C12.5878 13.8112 12.5 14.0232 12.5 14.2442C12.5 14.4652 12.5878 14.6772 12.7441 14.8335C12.9004 14.9898 13.1123 15.0776 13.3333 15.0776C13.5543 15.0776 13.7663 14.9898 13.9226 14.8335C14.0789 14.6772 14.1667 14.4652 14.1667 14.2442C14.1667 14.0232 14.0789 13.8112 13.9226 13.655C13.7663 13.4987 13.5543 13.4109 13.3333 13.4109ZM7.5 0.910889C8.60507 0.910889 9.66488 1.34988 10.4463 2.13128C11.2277 2.91268 11.6667 3.97249 11.6667 5.07756C11.6667 6.18262 11.2277 7.24243 10.4463 8.02383C9.66488 8.80524 8.60507 9.24422 7.5 9.24422C6.39493 9.24422 5.33512 8.80524 4.55372 8.02383C3.77232 7.24243 3.33333 6.18262 3.33333 5.07756C3.33333 3.97249 3.77232 2.91268 4.55372 2.13128C5.33512 1.34988 6.39493 0.910889 7.5 0.910889ZM7.5 2.57756C7.1717 2.57756 6.84661 2.64222 6.54329 2.76786C6.23998 2.89349 5.96438 3.07764 5.73223 3.30979C5.50009 3.54193 5.31594 3.81753 5.1903 4.12085C5.06466 4.42416 5 4.74925 5 5.07756C5 5.40586 5.06466 5.73095 5.1903 6.03426C5.31594 6.33758 5.50009 6.61318 5.73223 6.84532C5.96438 7.07747 6.23998 7.26162 6.54329 7.38725C6.84661 7.51289 7.1717 7.57756 7.5 7.57756C8.16304 7.57756 8.79893 7.31416 9.26777 6.84532C9.73661 6.37648 10 5.7406 10 5.07756C10 4.41451 9.73661 3.77863 9.26777 3.30979C8.79893 2.84095 8.16304 2.57756 7.5 2.57756Z" fill="#64748B"/>
</svg>
