<svg width="46" height="46" viewBox="0 0 46 46" fill="none" xmlns="http://www.w3.org/2000/svg">
<rect x="0.55389" y="1.0534" width="44.3929" height="43.9541" rx="4.32398" stroke="#282837" stroke-width="0.576531"/>
<path d="M7.7093 30.5303C7.34897 30.5303 7.16881 30.3366 7.16881 29.9492C7.16881 29.4718 7.19133 28.9944 7.23637 28.5169C7.29042 28.0305 7.32645 27.553 7.34447 27.0846C7.38951 26.0396 7.42554 24.9902 7.45257 23.9362C7.47959 22.8822 7.4931 21.8328 7.4931 20.7878C7.4931 19.4546 7.45707 18.1259 7.385 16.8016C7.31294 15.4774 7.26339 14.1532 7.23637 12.829V12.5452C7.23637 12.4551 7.24988 12.338 7.27691 12.1939C7.30393 12.0498 7.3805 11.9777 7.50662 11.9777C7.62372 11.9777 7.74534 12.0363 7.87145 12.1534C8.00658 12.2705 8.11017 12.3651 8.18224 12.4371C9.23621 13.4821 10.2586 14.5631 11.2496 15.6801C12.2405 16.7881 13.2269 17.9007 14.2088 19.0177C14.6772 19.5402 15.1411 20.0762 15.6006 20.6257C16.069 21.1752 16.5509 21.6976 17.0464 22.1931C17.0644 22.2111 17.0914 22.2291 17.1275 22.2472H17.2761C17.2761 22.2472 17.4743 22.04 17.8707 21.6256C18.276 21.2022 18.7985 20.6527 19.4381 19.9771C20.0777 19.3014 20.7713 18.5718 21.519 17.788C22.2667 17.0043 22.9964 16.2386 23.708 15.4909C24.4287 14.7432 25.0593 14.0901 25.5998 13.5316C26.1493 12.9731 26.5366 12.5858 26.7618 12.3696C26.8519 12.2795 26.942 12.1984 27.0321 12.1263C27.1222 12.0543 27.2258 12.0002 27.3429 11.9642C27.3609 11.9642 27.3744 11.9642 27.3834 11.9642C27.4014 11.9552 27.4149 11.9507 27.4239 11.9507C27.5771 11.9507 27.6582 12.0363 27.6672 12.2074C27.6852 12.3786 27.6942 12.5182 27.6942 12.6263V12.7884C27.6672 14.0136 27.6176 15.2387 27.5456 16.4638C27.4825 17.689 27.451 18.9186 27.451 20.1527C27.451 21.2517 27.46 22.3553 27.478 23.4633C27.505 24.5713 27.5456 25.6748 27.5996 26.7738C27.6266 27.3143 27.6627 27.8593 27.7077 28.4088C27.7618 28.9493 27.7888 29.4898 27.7888 30.0303C27.7888 30.3636 27.6131 30.5303 27.2618 30.5303H22.1406C21.7712 30.5303 21.5821 30.3501 21.5731 29.9898C21.5731 29.9087 21.5686 29.742 21.5595 29.4898C21.5595 29.2376 21.555 28.9628 21.546 28.6656C21.546 28.3593 21.5415 28.089 21.5325 27.8548C21.5235 27.6206 21.51 27.4855 21.492 27.4494L21.4379 27.4224C21.4019 27.4224 21.2713 27.5395 21.0461 27.7737C20.8209 27.9989 20.5416 28.2872 20.2083 28.6385C19.884 28.9899 19.5507 29.3502 19.2084 29.7195C18.8751 30.0889 18.5778 30.4132 18.3166 30.6924C18.0553 30.9717 17.8842 31.1518 17.8031 31.2329C17.749 31.287 17.6905 31.3365 17.6274 31.3816C17.5644 31.4266 17.4923 31.4491 17.4112 31.4491C17.3302 31.4491 17.2581 31.4266 17.195 31.3816C17.141 31.3455 17.0824 31.3005 17.0194 31.2464C16.9293 31.1654 16.7491 30.9942 16.4789 30.733C16.2176 30.4717 15.9114 30.1699 15.56 29.8276C15.2177 29.4763 14.8799 29.1385 14.5466 28.8142C14.2133 28.4809 13.925 28.2061 13.6818 27.9899C13.4476 27.7737 13.3125 27.6656 13.2764 27.6656C13.2494 27.6656 13.2314 27.6972 13.2224 27.7602C13.2134 27.8143 13.2089 27.8503 13.2089 27.8683L13.1548 29.9898C13.1458 30.3501 12.9566 30.5303 12.5873 30.5303H7.7093ZM31.2917 28.2602C31.2917 27.7918 31.4404 27.3864 31.7377 27.0441C32.0439 26.6927 32.4178 26.4225 32.8592 26.2333C33.3006 26.0351 33.7285 25.936 34.1429 25.936C34.5573 25.936 34.9896 26.0351 35.4401 26.2333C35.8905 26.4225 36.2688 26.6927 36.5751 27.0441C36.8904 27.3864 37.048 27.7918 37.048 28.2602C37.048 28.7556 36.8949 29.1745 36.5886 29.5168C36.2913 29.8501 35.9175 30.1024 35.4671 30.2735C35.0167 30.4447 34.5753 30.5303 34.1429 30.5303C33.7105 30.5303 33.2736 30.4447 32.8322 30.2735C32.3908 30.0934 32.0214 29.8366 31.7241 29.5033C31.4359 29.17 31.2917 28.7556 31.2917 28.2602Z" fill="#181C37"/>
</svg>
