<svg width="16" height="16" viewBox="0 0 16 16" fill="none" xmlns="http://www.w3.org/2000/svg">
<path d="M1.616 16C1.15533 16 0.771 15.846 0.463 15.538C0.155 15.23 0.000666667 14.8453 0 14.384V1.616C0 1.15533 0.154333 0.771 0.463 0.463C0.771667 0.155 1.156 0.000666667 1.616 0H14.385C14.845 0 15.2293 0.154333 15.538 0.463C15.8467 0.771667 16.0007 1.156 16 1.616V14.385C16 14.845 15.846 15.2293 15.538 15.538C15.23 15.8467 14.8453 16.0007 14.384 16H1.616ZM7.5 10.404H1V14.384C1 14.564 1.05767 14.7117 1.173 14.827C1.28833 14.9423 1.436 15 1.616 15H7.5V10.404ZM8.5 10.404V15H14.385C14.5643 15 14.7117 14.9423 14.827 14.827C14.9423 14.7117 15 14.5643 15 14.385V10.404H8.5ZM7.5 9.404V4.769H1V9.404H7.5ZM8.5 9.404H15V4.769H8.5V9.404ZM1 3.769H15V1.615C15 1.43567 14.9423 1.28833 14.827 1.173C14.7117 1.05767 14.5643 1 14.385 1H1.615C1.43567 1 1.28833 1.05767 1.173 1.173C1.05767 1.28833 1 1.436 1 1.616V3.769Z" fill="#64748B"/>
</svg>
