<svg width="15" height="15" viewBox="0 0 15 15" fill="none" xmlns="http://www.w3.org/2000/svg">
<g clip-path="url(#clip0_545_2905)">
<path d="M7.61699 0.773315C9.4526 0.773315 11.213 1.50251 12.511 2.80048C13.809 4.09846 14.5382 5.85889 14.5382 7.6945C14.5382 9.53012 13.809 11.2905 12.511 12.5885C11.213 13.8865 9.4526 14.6157 7.61699 14.6157C5.78137 14.6157 4.02094 13.8865 2.72297 12.5885C1.425 11.2905 0.695801 9.53012 0.695801 7.6945C0.695801 5.85889 1.425 4.09846 2.72297 2.80048C4.02094 1.50251 5.78137 0.773315 7.61699 0.773315ZM6.96813 4.01762V7.6945C6.96813 7.91079 7.07627 8.11356 7.25741 8.23522L9.85286 9.96552C10.1503 10.1656 10.5531 10.0845 10.7532 9.78438C10.9532 9.48428 10.8721 9.08415 10.572 8.88408L8.26585 7.34844V4.01762C8.26585 3.65804 7.97657 3.36876 7.61699 3.36876C7.25741 3.36876 6.96813 3.65804 6.96813 4.01762Z" fill="#EAB308"/>
</g>
<defs>
<clipPath id="clip0_545_2905">
<path d="M0.695801 0.773315H14.5382V14.6157H0.695801V0.773315Z" fill="white"/>
</clipPath>
</defs>
</svg>
