<svg width="15" height="14" viewBox="0 0 15 14" fill="none" xmlns="http://www.w3.org/2000/svg">
<path d="M10.3133 3.20066C9.91465 2.74539 9.69491 2.16081 9.69497 1.55566H7.89247V8.789C7.87886 9.18053 7.71369 9.55146 7.43182 9.82354C7.14995 10.0956 6.77341 10.2476 6.38164 10.2473C5.55331 10.2473 4.86497 9.57066 4.86497 8.73066C4.86497 7.72733 5.83331 6.97483 6.83081 7.284V5.44066C4.81831 5.17233 3.05664 6.73566 3.05664 8.73066C3.05664 10.6732 4.66664 12.0557 6.37581 12.0557C8.20747 12.0557 9.69497 10.5682 9.69497 8.73066V5.0615C10.4259 5.58641 11.3034 5.86804 12.2033 5.8665V4.064C12.2033 4.064 11.1066 4.1165 10.3133 3.20066Z" fill="black"/>
</svg>
