<svg width="20" height="21" viewBox="0 0 20 21" fill="none" xmlns="http://www.w3.org/2000/svg">
<path d="M3.33334 6.33333H16.6667M8.33334 9.66667V14.6667M11.6667 9.66667V14.6667M4.16668 6.33333L5.00001 16.3333C5.00001 16.7754 5.1756 17.1993 5.48817 17.5118C5.80073 17.8244 6.22465 18 6.66668 18H13.3333C13.7754 18 14.1993 17.8244 14.5119 17.5118C14.8244 17.1993 15 16.7754 15 16.3333L15.8333 6.33333M7.50001 6.33333V3.83333C7.50001 3.61232 7.58781 3.40036 7.74409 3.24408C7.90037 3.0878 8.11233 3 8.33334 3H11.6667C11.8877 3 12.0997 3.0878 12.2559 3.24408C12.4122 3.40036 12.5 3.61232 12.5 3.83333V6.33333" stroke="#898883" stroke-width="1.5" stroke-linecap="round" stroke-linejoin="round"/>
</svg>
