<svg width="45" height="45" viewBox="0 0 45 45" fill="none" xmlns="http://www.w3.org/2000/svg">
<rect width="44.9694" height="44.5306" rx="4.61224" fill="#5865F2"/>
<path d="M7.44417 29.7656C7.08383 29.7656 6.90367 29.5719 6.90367 29.1846C6.90367 28.7072 6.92619 28.2297 6.97123 27.7523C7.02528 27.2658 7.06131 26.7884 7.07933 26.32C7.12437 25.275 7.16041 24.2255 7.18743 23.1716C7.21446 22.1176 7.22797 21.0681 7.22797 20.0232C7.22797 18.6899 7.19193 17.3612 7.11987 16.037C7.0478 14.7128 6.99826 13.3886 6.97123 12.0643V11.7806C6.97123 11.6905 6.98474 11.5734 7.01177 11.4293C7.03879 11.2851 7.11536 11.2131 7.24148 11.2131C7.35859 11.2131 7.4802 11.2716 7.60632 11.3887C7.74144 11.5058 7.84504 11.6004 7.9171 11.6725C8.97107 12.7174 9.99351 13.7984 10.9844 14.9155C11.9753 16.0235 12.9617 17.136 13.9436 18.253C14.4121 18.7755 14.876 19.3115 15.3354 19.861C15.8039 20.4105 16.2858 20.933 16.7813 21.4285C16.7993 21.4465 16.8263 21.4645 16.8623 21.4825H17.011C17.011 21.4825 17.2092 21.2753 17.6055 20.8609C18.0109 20.4375 18.5334 19.888 19.173 19.2124C19.8125 18.5368 20.5062 17.8071 21.2539 17.0234C22.0016 16.2397 22.7312 15.474 23.4429 14.7263C24.1636 13.9786 24.7941 13.3255 25.3346 12.767C25.8841 12.2085 26.2715 11.8211 26.4967 11.6049C26.5868 11.5148 26.6769 11.4338 26.7669 11.3617C26.857 11.2896 26.9606 11.2356 27.0777 11.1995C27.0958 11.1995 27.1093 11.1995 27.1183 11.1995C27.1363 11.1905 27.1498 11.186 27.1588 11.186C27.312 11.186 27.393 11.2716 27.402 11.4428C27.4201 11.6139 27.4291 11.7535 27.4291 11.8616V12.0238C27.402 13.2489 27.3525 14.4741 27.2804 15.6992C27.2174 16.9243 27.1858 18.1539 27.1858 19.3881C27.1858 20.4871 27.1948 21.5906 27.2129 22.6986C27.2399 23.8066 27.2804 24.9102 27.3345 26.0092C27.3615 26.5497 27.3975 27.0947 27.4426 27.6442C27.4966 28.1847 27.5236 28.7252 27.5236 29.2657C27.5236 29.599 27.348 29.7656 26.9967 29.7656H21.8754C21.5061 29.7656 21.3169 29.5855 21.3079 29.2251C21.3079 29.1441 21.3034 28.9774 21.2944 28.7252C21.2944 28.4729 21.2899 28.1982 21.2809 27.9009C21.2809 27.5946 21.2764 27.3244 21.2674 27.0902C21.2584 26.8559 21.2449 26.7208 21.2269 26.6848L21.1728 26.6578C21.1368 26.6578 21.0061 26.7749 20.7809 27.0091C20.5557 27.2343 20.2765 27.5226 19.9432 27.8739C19.6189 28.2252 19.2856 28.5855 18.9432 28.9549C18.6099 29.3242 18.3127 29.6485 18.0514 29.9278C17.7902 30.207 17.619 30.3872 17.538 30.4683C17.4839 30.5223 17.4254 30.5719 17.3623 30.6169C17.2992 30.6619 17.2272 30.6845 17.1461 30.6845C17.065 30.6845 16.993 30.6619 16.9299 30.6169C16.8758 30.5809 16.8173 30.5358 16.7542 30.4818C16.6642 30.4007 16.484 30.2296 16.2137 29.9683C15.9525 29.7071 15.6462 29.4053 15.2949 29.063C14.9526 28.7117 14.6148 28.3738 14.2815 28.0495C13.9482 27.7162 13.6599 27.4415 13.4167 27.2253C13.1824 27.0091 13.0473 26.901 13.0113 26.901C12.9843 26.901 12.9662 26.9325 12.9572 26.9956C12.9482 27.0496 12.9437 27.0857 12.9437 27.1037L12.8897 29.2251C12.8807 29.5855 12.6915 29.7656 12.3222 29.7656H7.44417ZM31.0266 27.4955C31.0266 27.0271 31.1752 26.6217 31.4725 26.2794C31.7788 25.9281 32.1526 25.6578 32.5941 25.4687C33.0355 25.2705 33.4634 25.1714 33.8777 25.1714C34.2921 25.1714 34.7245 25.2705 35.1749 25.4687C35.6253 25.6578 36.0037 25.9281 36.31 26.2794C36.6253 26.6217 36.7829 27.0271 36.7829 27.4955C36.7829 27.991 36.6298 28.4099 36.3235 28.7522C36.0262 29.0855 35.6524 29.3377 35.202 29.5089C34.7515 29.68 34.3101 29.7656 33.8777 29.7656C33.4453 29.7656 33.0084 29.68 32.567 29.5089C32.1256 29.3287 31.7563 29.072 31.459 28.7387C31.1707 28.4054 31.0266 27.991 31.0266 27.4955Z" fill="white"/>
</svg>
