<svg width="13" height="12" viewBox="0 0 13 12" fill="none" xmlns="http://www.w3.org/2000/svg">
<path opacity="0.5" d="M6 12C4.4087 12 2.88258 11.3679 1.75736 10.2426C0.632141 9.11742 0 7.5913 0 6C0 4.4087 0.632141 2.88258 1.75736 1.75736C2.88258 0.632141 4.4087 0 6 0V12Z" fill="#C7C9CB"/>
<path fill-rule="evenodd" clip-rule="evenodd" d="M9.3525 3.35298C9.24716 3.45845 9.18799 3.60142 9.18799 3.75048C9.18799 3.89954 9.24716 4.04251 9.3525 4.14798L10.6425 5.43798H4.5C4.35082 5.43798 4.20774 5.49725 4.10225 5.60273C3.99676 5.70822 3.9375 5.8513 3.9375 6.00048C3.9375 6.14967 3.99676 6.29274 4.10225 6.39823C4.20774 6.50372 4.35082 6.56298 4.5 6.56298H10.6425L9.3525 7.85298C9.29723 7.90448 9.25291 7.96658 9.22216 8.03558C9.19142 8.10458 9.17489 8.17906 9.17356 8.25459C9.17222 8.33012 9.18612 8.40514 9.21441 8.47518C9.2427 8.54522 9.28481 8.60885 9.33822 8.66226C9.39164 8.71567 9.45526 8.75778 9.5253 8.78607C9.59534 8.81436 9.67036 8.82826 9.74589 8.82693C9.82142 8.82559 9.89591 8.80906 9.9649 8.77832C10.0339 8.74757 10.096 8.70325 10.1475 8.64798L12.3975 6.39798C12.5028 6.29251 12.562 6.14954 12.562 6.00048C12.562 5.85142 12.5028 5.70845 12.3975 5.60298L10.1475 3.35298C10.042 3.24764 9.89906 3.18848 9.75 3.18848C9.60094 3.18848 9.45797 3.24764 9.3525 3.35298Z" fill="#C7C9CB"/>
</svg>
