<svg width="16" height="16" viewBox="0 0 16 16" fill="none" xmlns="http://www.w3.org/2000/svg">
<path fill-rule="evenodd" clip-rule="evenodd" d="M8 0C3.5816 0 0 3.5816 0 8C0 12.4184 3.5816 16 8 16C12.4184 16 16 12.4184 16 8C16 3.5816 12.4184 0 8 0ZM8 1.6V4.8C7.15131 4.8 6.33737 5.13714 5.73726 5.73726C5.13714 6.33737 4.8 7.15131 4.8 8C4.8 8.84869 5.13714 9.66263 5.73726 10.2627C6.33737 10.8629 7.15131 11.2 8 11.2V14.4C9.69739 14.4 11.3253 13.7257 12.5255 12.5255C13.7257 11.3253 14.4 9.69739 14.4 8C14.4 6.30261 13.7257 4.67475 12.5255 3.47452C11.3253 2.27428 9.69739 1.6 8 1.6Z" fill="#C7C9CB"/>
<path d="M8 4.84961C9.73956 4.84977 11.1494 6.2604 11.1494 8C11.1492 9.73938 9.7394 11.1493 8 11.1494V4.84961Z" fill="#D9D9D9"/>
</svg>
