<svg width="20" height="21" viewBox="0 0 20 21" fill="none" xmlns="http://www.w3.org/2000/svg">
<path d="M11.25 5.91667L14.5833 9.25M13.3333 16.3333H18.3333M3.33334 17.1667H6.66668L15.4167 8.41666C15.6355 8.19779 15.8092 7.93796 15.9276 7.65199C16.0461 7.36602 16.107 7.05953 16.107 6.75C16.107 6.44047 16.0461 6.13397 15.9276 5.848C15.8092 5.56204 15.6355 5.3022 15.4167 5.08333C15.1978 4.86446 14.938 4.69084 14.652 4.57239C14.366 4.45394 14.0595 4.39297 13.75 4.39297C13.4405 4.39297 13.134 4.45394 12.848 4.57239C12.562 4.69084 12.3022 4.86446 12.0833 5.08333L3.33334 13.8333V17.1667Z" stroke="#898883" stroke-width="1.5" stroke-linecap="round" stroke-linejoin="round"/>
</svg>
