<svg width="18" height="18" viewBox="0 0 18 18" fill="none" xmlns="http://www.w3.org/2000/svg">
<g clip-path="url(#clip0_25_3797)">
<path d="M3.54929 7.34688V1.66553H13.8482L16.3338 4.15112V17.2892H11.3626M12.7829 1.66553V5.21637H16.3338M6.39139 10.8977V8.76722M6.39139 10.8977C6.95643 10.8977 7.49834 11.1222 7.89788 11.5217C8.29743 11.9213 8.52189 12.4632 8.52189 13.0282M6.39139 10.8977C5.82634 10.8977 5.28444 11.1222 4.88489 11.5217C4.48534 11.9213 4.26088 12.4632 4.26088 13.0282M6.39139 15.1587C6.95643 15.1587 7.49834 14.9343 7.89788 14.5347C8.29743 14.1352 8.52189 13.5933 8.52189 13.0282M6.39139 15.1587C5.82634 15.1587 5.28444 14.9343 4.88489 14.5347C4.48534 14.1352 4.26088 13.5933 4.26088 13.0282M6.39139 15.1587V17.2892M8.52189 13.0282H10.6524M4.26088 13.0282H2.13037M3.55071 10.1876L4.97105 11.6079M7.81172 14.4486L9.23206 15.8689M9.23206 10.1876L7.81172 11.6079M4.97105 14.4486L3.55071 15.8689" stroke="#828282" stroke-width="1.42034"/>
</g>
<defs>
<clipPath id="clip0_25_3797">
<rect width="17.0441" height="17.0441" fill="white" transform="translate(0 0.955566)"/>
</clipPath>
</defs>
</svg>
