<svg width="17" height="17" viewBox="0 0 17 17" fill="none" xmlns="http://www.w3.org/2000/svg">
<g clip-path="url(#clip0_2277_3310)">
<path d="M7.422 4.268L6.778 3.732C6.59836 3.5822 6.3719 3.50011 6.138 3.5H2.5C2.23478 3.5 1.98043 3.60536 1.79289 3.79289C1.60536 3.98043 1.5 4.23478 1.5 4.5V12.5C1.5 12.7652 1.60536 13.0196 1.79289 13.2071C1.98043 13.3946 2.23478 13.5 2.5 13.5H14.5C14.7652 13.5 15.0196 13.3946 15.2071 13.2071C15.3946 13.0196 15.5 12.7652 15.5 12.5V5.5C15.5 5.23478 15.3946 4.98043 15.2071 4.79289C15.0196 4.60536 14.7652 4.5 14.5 4.5H8.062C7.8281 4.49989 7.60164 4.4178 7.422 4.268Z" fill="#BF3827"/>
<path d="M12.5 7.5C11.7089 7.5 10.9355 7.7346 10.2777 8.17412C9.61993 8.61365 9.10723 9.23836 8.80448 9.96927C8.50173 10.7002 8.42252 11.5044 8.57686 12.2804C8.7312 13.0563 9.11216 13.769 9.67157 14.3284C10.231 14.8878 10.9437 15.2688 11.7196 15.4231C12.4956 15.5775 13.2998 15.4983 14.0307 15.1955C14.7616 14.8928 15.3864 14.3801 15.8259 13.7223C16.2654 13.0645 16.5 12.2911 16.5 11.5C16.5 10.4391 16.0786 9.42172 15.3284 8.67157C14.5783 7.92143 13.5609 7.5 12.5 7.5ZM15.5 11.5C15.5 12.1225 15.305 12.7294 14.9425 13.2355L10.7645 9.0575C11.2127 8.73747 11.7404 8.5472 12.2897 8.5076C12.8389 8.468 13.3885 8.58062 13.8779 8.83306C14.3674 9.0855 14.7777 9.46799 15.0639 9.9385C15.35 10.409 15.5009 10.9493 15.5 11.5ZM9.5 11.5C9.5 10.8775 9.69495 10.2706 10.0575 9.7645L14.2355 13.9425C13.7873 14.2625 13.2596 14.4528 12.7103 14.4924C12.1611 14.532 11.6115 14.4194 11.1221 14.1669C10.6327 13.9145 10.2223 13.532 9.93613 13.0615C9.64996 12.591 9.49905 12.0507 9.5 11.5Z" fill="#D59890"/>
</g>
<defs>
<clipPath id="clip0_2277_3310">
<rect width="16" height="16" fill="white" transform="translate(0.5 0.5)"/>
</clipPath>
</defs>
</svg>
