<svg width="12" height="11" viewBox="0 0 12 11" fill="none" xmlns="http://www.w3.org/2000/svg">
<path fill-rule="evenodd" clip-rule="evenodd" d="M1.78497 0C1.31157 0 0.857552 0.188059 0.522805 0.522805C0.188059 0.857552 0 1.31157 0 1.78497V8.32985C0 8.80326 0.188059 9.25727 0.522805 9.59202C0.857552 9.92676 1.31157 10.1148 1.78497 10.1148H10.1148C10.5882 10.1148 11.0422 9.92676 11.377 9.59202C11.7117 9.25727 11.8998 8.80326 11.8998 8.32985V1.78497C11.8998 1.31157 11.7117 0.857552 11.377 0.522805C11.0422 0.188059 10.5882 0 10.1148 0C7.33622 0.0059499 4.56119 0 1.78497 0ZM6.23371 1.18998L6.79835 2.6007C6.84246 2.71111 6.91863 2.80577 7.01705 2.87247C7.11547 2.93918 7.23161 2.97487 7.3505 2.97495H10.7098V1.78497C10.7098 1.62717 10.6471 1.47583 10.5355 1.36425C10.424 1.25267 10.2726 1.18998 10.1148 1.18998H6.23371Z" fill="#72767D"/>
</svg>
