<svg width="16" height="17" viewBox="0 0 16 17" fill="none" xmlns="http://www.w3.org/2000/svg">
<g clip-path="url(#clip0_2277_3033)">
<path d="M6.922 4.268L6.278 3.732C6.09836 3.5822 5.8719 3.50011 5.638 3.5H2C1.73478 3.5 1.48043 3.60536 1.29289 3.79289C1.10536 3.98043 1 4.23478 1 4.5V12.5C1 12.7652 1.10536 13.0196 1.29289 13.2071C1.48043 13.3946 1.73478 13.5 2 13.5H14C14.2652 13.5 14.5196 13.3946 14.7071 13.2071C14.8946 13.0196 15 12.7652 15 12.5V5.5C15 5.23478 14.8946 4.98043 14.7071 4.79289C14.5196 4.60536 14.2652 4.5 14 4.5H7.562C7.3281 4.49989 7.10164 4.4178 6.922 4.268Z" fill="#2563EB"/>
<path d="M11 5.5C10.0111 5.5 9.0444 5.79324 8.22215 6.34265C7.39991 6.89206 6.75904 7.67295 6.3806 8.58658C6.00217 9.50021 5.90315 10.5055 6.09608 11.4755C6.289 12.4454 6.76521 13.3363 7.46447 14.0355C8.16373 14.7348 9.05465 15.211 10.0246 15.4039C10.9945 15.5969 11.9998 15.4978 12.9134 15.1194C13.827 14.741 14.6079 14.1001 15.1573 13.2779C15.7068 12.4556 16 11.4889 16 10.5C16 9.17392 15.4732 7.90215 14.5355 6.96447C13.5979 6.02678 12.3261 5.5 11 5.5ZM14.459 8.5H12.98C12.8281 7.88524 12.6028 7.29097 12.309 6.73C13.2137 7.04499 13.9761 7.67268 14.459 8.5ZM11 6.5C11.4183 7.11279 11.7372 7.78776 11.945 8.5H10.055C10.2628 7.78776 10.5817 7.11279 11 6.5ZM9.691 6.73C9.3972 7.29097 9.17192 7.88524 9.02 8.5H7.541C8.02389 7.67268 8.78634 7.04499 9.691 6.73ZM7.1315 11.5C6.95532 10.845 6.95532 10.155 7.1315 9.5H8.835C8.74862 10.1639 8.74862 10.8361 8.835 11.5H7.1315ZM7.5415 12.5H9.02C9.17192 13.1148 9.3972 13.709 9.691 14.27C8.78634 13.955 8.02439 13.3273 7.5415 12.5ZM11 14.5C10.5817 13.8872 10.2628 13.2122 10.055 12.5H11.945C11.7372 13.2122 11.4183 13.8872 11 14.5ZM12.155 11.5H9.845C9.74494 10.8371 9.74494 10.1629 9.845 9.5H12.155C12.2551 10.1629 12.2551 10.8371 12.155 11.5ZM12.309 14.27C12.6028 13.709 12.8281 13.1148 12.98 12.5H14.459C13.9761 13.3273 13.2137 13.955 12.309 14.27ZM14.8685 11.5H13.165C13.2514 10.8361 13.2514 10.1639 13.165 9.5H14.8685C15.0447 10.155 15.0447 10.845 14.8685 11.5Z" fill="#B3E5FC"/>
</g>
<defs>
<clipPath id="clip0_2277_3033">
<rect width="16" height="16" fill="white" transform="translate(0 0.5)"/>
</clipPath>
</defs>
</svg>
