<svg width="44" height="45" viewBox="0 0 44 45" fill="none" xmlns="http://www.w3.org/2000/svg">
<g filter="url(#filter0_d_2243_6557)">
<rect x="4" y="0.5" width="36" height="36" rx="8" fill="#EDEDEC" shape-rendering="crispEdges"/>
<path d="M25.6093 4.5H18.3894L17.5612 8.61982C16.8754 8.92535 16.2234 9.30068 15.6154 9.73982L11.6086 8.392L8 14.608L11.176 17.3825C11.0993 18.1256 11.0993 18.8744 11.176 19.6175L8 22.392L11.6099 28.608L15.6154 27.2615C16.2196 27.6967 16.8699 28.0735 17.5612 28.3802L18.3894 32.5H25.6093L26.4375 28.3802C27.1233 28.0747 27.7753 27.6993 28.3833 27.2602L32.3901 28.608L36 22.392L32.8228 19.6175C32.8994 18.8744 32.8994 18.1256 32.8228 17.3825L35.9987 14.608L32.3888 8.392L28.3846 9.73855C27.7766 9.29985 27.1245 8.92495 26.4388 8.61982L25.6093 4.5ZM21.9994 23.5909C20.6413 23.5909 19.3389 23.0545 18.3786 22.0998C17.4184 21.1451 16.8789 19.8502 16.8789 18.5C16.8789 17.1498 17.4184 15.8549 18.3786 14.9002C19.3389 13.9455 20.6413 13.4091 21.9994 13.4091C23.3574 13.4091 24.6598 13.9455 25.6201 14.9002C26.5804 15.8549 27.1198 17.1498 27.1198 18.5C27.1198 19.8502 26.5804 21.1451 25.6201 22.0998C24.6598 23.0545 23.3574 23.5909 21.9994 23.5909Z" fill="black"/>
</g>
<defs>
<filter id="filter0_d_2243_6557" x="0" y="0.5" width="44" height="44" filterUnits="userSpaceOnUse" color-interpolation-filters="sRGB">
<feFlood flood-opacity="0" result="BackgroundImageFix"/>
<feColorMatrix in="SourceAlpha" type="matrix" values="0 0 0 0 0 0 0 0 0 0 0 0 0 0 0 0 0 0 127 0" result="hardAlpha"/>
<feOffset dy="4"/>
<feGaussianBlur stdDeviation="2"/>
<feComposite in2="hardAlpha" operator="out"/>
<feColorMatrix type="matrix" values="0 0 0 0 0 0 0 0 0 0 0 0 0 0 0 0 0 0 0.25 0"/>
<feBlend mode="normal" in2="BackgroundImageFix" result="effect1_dropShadow_2243_6557"/>
<feBlend mode="normal" in="SourceGraphic" in2="effect1_dropShadow_2243_6557" result="shape"/>
</filter>
</defs>
</svg>
