<svg width="13" height="13" viewBox="0 0 13 13" fill="none" xmlns="http://www.w3.org/2000/svg">
<path opacity="0.5" d="M6.43799 12.5C4.84669 12.5 3.32057 11.8679 2.19535 10.7426C1.07013 9.61742 0.437988 8.0913 0.437988 6.5C0.437988 4.9087 1.07013 3.38258 2.19535 2.25736C3.32057 1.13214 4.84669 0.5 6.43799 0.5V12.5Z" fill="black"/>
<path fill-rule="evenodd" clip-rule="evenodd" d="M9.79049 3.85249C9.68515 3.95796 9.62598 4.10093 9.62598 4.24999C9.62598 4.39906 9.68515 4.54202 9.79049 4.64749L11.0805 5.93749H4.93799C4.7888 5.93749 4.64573 5.99676 4.54024 6.10225C4.43475 6.20774 4.37549 6.35081 4.37549 6.49999C4.37549 6.64918 4.43475 6.79225 4.54024 6.89774C4.64573 7.00323 4.7888 7.06249 4.93799 7.06249H11.0805L9.79049 8.35249C9.73522 8.40399 9.6909 8.46609 9.66015 8.53509C9.62941 8.60409 9.61288 8.67857 9.61155 8.7541C9.61021 8.82963 9.62411 8.90465 9.6524 8.97469C9.68069 9.04473 9.7228 9.10836 9.77621 9.16177C9.82962 9.21519 9.89325 9.25729 9.96329 9.28559C10.0333 9.31388 10.1084 9.32777 10.1839 9.32644C10.2594 9.3251 10.3339 9.30857 10.4029 9.27783C10.4719 9.24709 10.534 9.20276 10.5855 9.14749L12.8355 6.89749C12.9408 6.79202 13 6.64906 13 6.49999C13 6.35093 12.9408 6.20796 12.8355 6.10249L10.5855 3.85249C10.48 3.74716 10.3371 3.68799 10.188 3.68799C10.0389 3.68799 9.89596 3.74716 9.79049 3.85249Z" fill="black"/>
</svg>
