<svg width="17" height="17" viewBox="0 0 17 17" fill="none" xmlns="http://www.w3.org/2000/svg">
<path d="M14.1903 11.1659C14.1384 11.1034 14.0874 11.0409 14.0374 10.9806C13.3499 10.1491 12.934 9.64719 12.934 7.29313C12.934 6.07438 12.6424 5.07437 12.0678 4.32437C11.644 3.77031 11.0712 3.35 10.3162 3.03938C10.3065 3.03397 10.2978 3.02688 10.2906 3.01844C10.019 2.10906 9.27588 1.5 8.43776 1.5C7.59963 1.5 6.85682 2.10906 6.58526 3.0175C6.57802 3.02565 6.56946 3.03251 6.55994 3.03781C4.79807 3.76312 3.94182 5.15469 3.94182 7.29219C3.94182 9.64719 3.52651 10.1491 2.83838 10.9797C2.78838 11.04 2.73744 11.1012 2.68557 11.165C2.55157 11.3266 2.46667 11.5232 2.44092 11.7316C2.41516 11.9399 2.44964 12.1513 2.54026 12.3406C2.73307 12.7469 3.14401 12.9991 3.61307 12.9991H13.2659C13.7328 12.9991 14.1409 12.7472 14.3343 12.3428C14.4253 12.1534 14.4601 11.9419 14.4346 11.7333C14.4091 11.5247 14.3243 11.3278 14.1903 11.1659ZM8.43776 15.5C8.88933 15.4996 9.33239 15.3771 9.71993 15.1453C10.1075 14.9135 10.4251 14.5811 10.639 14.1834C10.6491 14.1644 10.6541 14.143 10.6535 14.1215C10.6529 14.0999 10.6467 14.0789 10.6355 14.0604C10.6244 14.042 10.6087 14.0267 10.5899 14.0161C10.5711 14.0055 10.5499 14 10.5284 14H6.34776C6.32617 13.9999 6.30493 14.0054 6.28611 14.016C6.26729 14.0266 6.25153 14.0418 6.24036 14.0603C6.22919 14.0788 6.22299 14.0998 6.22237 14.1214C6.22175 14.143 6.22673 14.1644 6.23682 14.1834C6.45074 14.5811 6.76827 14.9134 7.15576 15.1452C7.54324 15.377 7.98624 15.4996 8.43776 15.5Z" fill="black"/>
</svg>
