<svg width="13" height="13" viewBox="0 0 13 13" fill="none" xmlns="http://www.w3.org/2000/svg">
<path fill-rule="evenodd" clip-rule="evenodd" d="M0.0459882 2.4548C0.000488237 2.6756 0.000488281 2.9408 0.000488281 3.47V7.7C0.000488281 9.9626 0.000488222 11.0942 0.762288 11.7968C1.52409 12.4994 2.74934 12.5 5.20049 12.5H7.80049C10.2516 12.5 11.4775 12.5 12.2387 11.7968C12.9998 11.0936 13.0005 9.9626 13.0005 7.7V6.3788C13.0005 4.7996 13.0005 4.0094 12.5 3.4964C12.4541 3.44906 12.4055 3.404 12.3544 3.3614C11.7986 2.9 10.9426 2.9 9.23179 2.9H8.98869C8.23924 2.9 7.86419 2.9 7.51449 2.8082C7.32258 2.75756 7.13763 2.6867 6.96329 2.597C6.64609 2.4344 6.38089 2.189 5.85049 1.7L5.49299 1.37C5.31489 1.2056 5.22649 1.124 5.13289 1.052C4.73032 0.743984 4.2365 0.555166 3.71589 0.5102C3.59499 0.5 3.46889 0.5 3.21799 0.5C2.64404 0.5 2.35739 0.5 2.11819 0.542C1.60458 0.631534 1.13214 0.861882 0.762487 1.20299C0.392836 1.5441 0.143145 1.98073 0.0459882 2.4548ZM6.66299 5.3C6.66299 5.18065 6.71435 5.06619 6.80577 4.9818C6.8972 4.89741 7.02119 4.85 7.15049 4.85H10.4005C10.5298 4.85 10.6538 4.89741 10.7452 4.9818C10.8366 5.06619 10.888 5.18065 10.888 5.3C10.888 5.41935 10.8366 5.53381 10.7452 5.6182C10.6538 5.70259 10.5298 5.75 10.4005 5.75H7.15049C7.02119 5.75 6.8972 5.70259 6.80577 5.6182C6.71435 5.53381 6.66299 5.41935 6.66299 5.3Z" fill="black"/>
</svg>
