<svg width="15" height="15" viewBox="0 0 15 15" fill="none" xmlns="http://www.w3.org/2000/svg">
<g clip-path="url(#clip0_504_1583)">
<path d="M3.1707 6.28979C3.38125 5.6937 3.72305 5.13315 4.2043 4.65464C5.91328 2.94565 8.6832 2.94565 10.3922 4.65464L10.8598 5.12495H9.48438C9.00039 5.12495 8.60938 5.51597 8.60938 5.99995C8.60938 6.48394 9.00039 6.87495 9.48438 6.87495H12.9707H12.9816C13.4656 6.87495 13.8566 6.48394 13.8566 5.99995V2.49995C13.8566 2.01597 13.4656 1.62495 12.9816 1.62495C12.4977 1.62495 12.1066 2.01597 12.1066 2.49995V3.89995L11.6281 3.4187C9.23555 1.02612 5.3582 1.02612 2.96563 3.4187C2.29844 4.08589 1.81719 4.87065 1.52187 5.71011C1.36055 6.16675 1.60117 6.6644 2.05508 6.82573C2.50898 6.98706 3.00937 6.74644 3.1707 6.29253V6.28979ZM1.36328 8.6605C1.22656 8.70151 1.09531 8.77534 0.988672 8.88472C0.879297 8.99409 0.805469 9.12534 0.767188 9.26753C0.758984 9.30034 0.750781 9.33589 0.745312 9.37144C0.737109 9.41792 0.734375 9.4644 0.734375 9.51089V13C0.734375 13.4839 1.12539 13.875 1.60938 13.875C2.09336 13.875 2.48438 13.4839 2.48438 13V11.6027L2.96563 12.0812C5.3582 14.471 9.23555 14.471 11.6254 12.0812C12.2926 11.414 12.7766 10.6292 13.0719 9.79253C13.2332 9.33589 12.9926 8.83823 12.5387 8.6769C12.0848 8.51558 11.5844 8.7562 11.423 9.21011C11.2125 9.8062 10.8707 10.3667 10.3895 10.8453C8.68047 12.5542 5.91055 12.5542 4.20156 10.8453L4.19883 10.8425L3.73125 10.375H5.10938C5.59336 10.375 5.98438 9.98394 5.98438 9.49995C5.98438 9.01597 5.59336 8.62495 5.10938 8.62495H1.62031C1.57656 8.62495 1.53281 8.62769 1.48906 8.63315C1.44531 8.63862 1.4043 8.64683 1.36328 8.6605Z" fill="#4B5563"/>
</g>
<defs>
<clipPath id="clip0_504_1583">
<path d="M0.296875 0.75H14.2969V14.75H0.296875V0.75Z" fill="white"/>
</clipPath>
</defs>
</svg>
