<svg width="11" height="12" viewBox="0 0 11 12" fill="none" xmlns="http://www.w3.org/2000/svg">
<path d="M5.71895 10.6789C5.21625 10.6789 4.70487 10.6391 4.18482 10.5593C3.66477 10.4796 3.17797 10.3615 2.72442 10.2049C2.27088 10.0484 1.8702 9.85425 1.5224 9.62251C1.1746 9.39078 0.921181 9.12332 0.76215 8.82013V6.99727C0.921181 7.30046 1.1746 7.56792 1.5224 7.79965C1.8702 8.03138 2.27088 8.22552 2.72442 8.38207C3.17797 8.53863 3.66477 8.65676 4.18482 8.73649C4.70487 8.81621 5.21625 8.85607 5.71895 8.85607C6.16878 8.85607 6.62977 8.82406 7.1019 8.76003C7.57404 8.696 8.02635 8.59646 8.45883 8.46138L9.74512 9.74829C9.21639 10.0564 8.5908 10.2886 7.86835 10.4447C7.14589 10.6009 6.42943 10.6789 5.71895 10.6789ZM10.6553 8.90812L9.69059 7.9434C9.91365 7.81535 10.1119 7.67139 10.2854 7.51154C10.4589 7.35168 10.5931 7.18026 10.6881 6.99727V8.49856C10.6881 8.57209 10.6857 8.64148 10.6807 8.70674C10.6758 8.77201 10.6669 8.83913 10.6553 8.90812ZM5.71895 7.90312C5.21625 7.90312 4.70487 7.86326 4.18482 7.78354C3.66477 7.70382 3.17797 7.58568 2.72442 7.42913C2.27088 7.27258 1.8702 7.07843 1.5224 6.8467C1.1746 6.61497 0.921181 6.34751 0.76215 6.04432V4.20907C0.921181 4.51226 1.1746 4.77972 1.5224 5.01145C1.8702 5.24318 2.27088 5.43732 2.72442 5.59387C3.17797 5.75043 3.66477 5.86856 4.18482 5.94828C4.70487 6.02801 5.21625 6.06787 5.71895 6.06787C5.77141 6.06787 5.82491 6.06725 5.87943 6.06601C5.93396 6.06477 5.9922 6.06188 6.05416 6.05733L7.6992 7.70237C7.37122 7.76929 7.03953 7.81948 6.70412 7.85294C6.36871 7.88639 6.04032 7.90354 5.71895 7.90312ZM9.04249 7.2953L7.63166 5.88385C8.3314 5.74836 8.96008 5.53873 9.51772 5.25495C10.0754 4.97117 10.4653 4.62255 10.6875 4.20907V6.0437C10.5525 6.31054 10.3401 6.54661 10.0506 6.75191C9.76143 6.9572 9.4254 7.13874 9.04249 7.2953ZM5.09564 5.09881C3.86594 5.02694 2.83657 4.7886 2.00755 4.38379C1.17728 3.97816 0.76215 3.4988 0.76215 2.9457C0.76215 2.70901 0.842698 2.48513 1.00379 2.27405C1.16448 2.06339 1.39022 1.86677 1.68102 1.68419L5.09564 5.09881ZM6.81503 5.06783L2.91278 1.16559C3.31387 1.0425 3.75214 0.947077 4.22758 0.879334C4.70302 0.811591 5.20407 0.777513 5.73073 0.7771C7.11326 0.7771 8.28493 0.98797 9.24572 1.40971C10.2065 1.83145 10.6871 2.34366 10.6875 2.94632C10.6875 3.46555 10.3211 3.92054 9.58836 4.3113C8.85558 4.70206 7.93113 4.95424 6.81503 5.06783ZM10.0667 10.9503L0.490766 1.37439C0.432936 1.31656 0.401956 1.24593 0.397825 1.16249C0.393695 1.07988 0.424675 1.00429 0.490766 0.935717C0.558922 0.867148 0.632447 0.832864 0.711343 0.832864C0.790239 0.832864 0.863972 0.867148 0.932541 0.935717L10.5091 10.5123C10.5694 10.5726 10.601 10.6436 10.6039 10.7254C10.6068 10.8072 10.5739 10.8824 10.5054 10.9509C10.4372 11.0166 10.3641 11.0501 10.286 11.0513C10.208 11.0526 10.1348 11.0185 10.0667 10.9503Z" fill="#D9D9D9"/>
</svg>
