<svg width="11" height="12" viewBox="0 0 11 12" fill="none" xmlns="http://www.w3.org/2000/svg">
<path d="M10.7963 4.29197V5.91422C10.7963 7.25799 8.4918 8.3476 5.64984 8.3476C2.80787 8.3476 0.503418 7.25799 0.503418 5.91422V4.29197C0.503418 5.63574 2.80787 6.72535 5.64984 6.72535C8.4918 6.72535 10.7963 5.63574 10.7963 4.29197ZM0.503418 6.99572C0.503418 8.33949 2.80787 9.4291 5.64984 9.4291C8.4918 9.4291 10.7963 8.33949 10.7963 6.99572V8.61797C10.7963 9.96173 8.4918 11.0513 5.64984 11.0513C2.80787 11.0513 0.503418 9.96173 0.503418 8.61797V6.99572ZM5.64984 5.64385C2.80787 5.64385 0.503418 4.55424 0.503418 3.21047C0.503418 1.86671 2.80787 0.7771 5.64984 0.7771C8.4918 0.7771 10.7963 1.86671 10.7963 3.21047C10.7963 4.55424 8.4918 5.64385 5.64984 5.64385Z" fill="#D9D9D9"/>
</svg>
