<svg width="16" height="14" viewBox="0 0 16 14" fill="none" xmlns="http://www.w3.org/2000/svg">
<path d="M4.5 7.625C4.96484 7.625 5.375 8.03516 5.375 8.5V10.25C5.375 10.7422 4.96484 11.125 4.5 11.125H2.75C2.25781 11.125 1.875 10.7422 1.875 10.25V8.5C1.875 8.03516 2.25781 7.625 2.75 7.625H4.5ZM8.875 7.625C9.33984 7.625 9.75 8.03516 9.75 8.5V10.25C9.75 10.7422 9.33984 11.125 8.875 11.125H7.125C6.63281 11.125 6.25 10.7422 6.25 10.25V8.5C6.25 8.03516 6.63281 7.625 7.125 7.625H8.875ZM13.25 7.625C13.7148 7.625 14.125 8.03516 14.125 8.5V10.25C14.125 10.7422 13.7148 11.125 13.25 11.125H11.5C11.0078 11.125 10.625 10.7422 10.625 10.25V8.5C10.625 8.03516 11.0078 7.625 11.5 7.625H13.25ZM4.5 2.375C4.96484 2.375 5.375 2.78516 5.375 3.25V5C5.375 5.49219 4.96484 5.875 4.5 5.875H2.75C2.25781 5.875 1.875 5.49219 1.875 5V3.25C1.875 2.78516 2.25781 2.375 2.75 2.375H4.5ZM8.875 2.375C9.33984 2.375 9.75 2.78516 9.75 3.25V5C9.75 5.49219 9.33984 5.875 8.875 5.875H7.125C6.63281 5.875 6.25 5.49219 6.25 5V3.25C6.25 2.78516 6.63281 2.375 7.125 2.375H8.875ZM13.25 2.375C13.7148 2.375 14.125 2.78516 14.125 3.25V5C14.125 5.49219 13.7148 5.875 13.25 5.875H11.5C11.0078 5.875 10.625 5.49219 10.625 5V3.25C10.625 2.78516 11.0078 2.375 11.5 2.375H13.25Z" fill="#475569"/>
</svg>
