<svg width="22" height="20" viewBox="0 0 22 20" fill="none" xmlns="http://www.w3.org/2000/svg">
<path d="M8.00314 12.4999L13.2531 7.49993M9.75314 4.99993L10.1583 4.55326C10.9788 3.77187 12.0917 3.33293 13.2521 3.33301C14.4125 3.33309 15.5254 3.77217 16.3458 4.55368C17.1663 5.33518 17.6272 6.39509 17.6271 7.50022C17.627 8.60536 17.166 9.6652 16.3454 10.4466L15.8781 10.8333M11.5031 14.9999L11.1557 15.4449C10.3255 16.2268 9.20512 16.6652 8.03762 16.6652C6.87011 16.6652 5.74971 16.2268 4.91955 15.4449C4.51037 15.0596 4.18551 14.6008 3.9638 14.095C3.74209 13.5893 3.62793 13.0467 3.62793 12.4987C3.62793 11.9506 3.74209 11.408 3.9638 10.9023C4.18551 10.3966 4.51037 9.93776 4.91955 9.55243L5.37805 9.1666" stroke="#777671" stroke-width="1.5" stroke-linecap="round" stroke-linejoin="round"/>
</svg>
