<svg width="7" height="8" viewBox="0 0 7 8" fill="none" xmlns="http://www.w3.org/2000/svg">
<path d="M6.43606 5.63155V1.60901C6.43606 0.736929 4.9626 0 3.21803 0C1.47346 0 0 0.736929 0 1.60901V5.63155C0 6.50364 1.47346 7.24057 3.21803 7.24057C4.9626 7.24057 6.43606 6.50364 6.43606 5.63155ZM3.21803 0.804507C4.70275 0.804507 5.6038 1.4107 5.63155 1.6066C5.6038 1.80733 4.70275 2.41352 3.21803 2.41352C1.73331 2.41352 0.832263 1.80733 0.804507 1.61143C0.832263 1.4107 1.73331 0.804507 3.21803 0.804507ZM0.804507 2.65769C1.39944 2.9984 2.2675 3.21803 3.21803 3.21803C4.16855 3.21803 5.03662 2.9984 5.63155 2.65769V3.61787C5.6038 3.81859 4.70275 4.42479 3.21803 4.42479C1.73331 4.42479 0.832263 3.81859 0.804507 3.62028V2.65769ZM0.804507 5.63155V4.66896C1.39944 5.00967 2.2675 5.2293 3.21803 5.2293C4.16855 5.2293 5.03662 5.00967 5.63155 4.66896V5.62914C5.6038 5.82986 4.70275 6.43606 3.21803 6.43606C1.73331 6.43606 0.832263 5.82986 0.804507 5.63155Z" fill="black"/>
</svg>
