<svg width="13" height="13" viewBox="0 0 13 13" fill="none" xmlns="http://www.w3.org/2000/svg">
<path d="M4.07366 1.54427C4.07366 1.4402 4.03231 1.34039 3.95872 1.26679C3.88513 1.1932 3.78531 1.15186 3.68124 1.15186C3.57716 1.15186 3.47735 1.1932 3.40376 1.26679C3.33016 1.34039 3.28882 1.4402 3.28882 1.54427V2.37097C2.53537 2.43114 2.04145 2.57869 1.67833 2.94233C1.31469 3.30545 1.16714 3.7999 1.10645 4.55282H11.4883C11.4276 3.79938 11.28 3.30545 10.9164 2.94233C10.5533 2.57869 10.0588 2.43114 9.30591 2.37045V1.54427C9.30591 1.4402 9.26457 1.34039 9.19098 1.26679C9.11738 1.1932 9.01757 1.15186 8.91349 1.15186C8.80942 1.15186 8.7096 1.1932 8.63601 1.26679C8.56242 1.34039 8.52107 1.4402 8.52107 1.54427V2.33591C8.17313 2.32911 7.7828 2.32911 7.34382 2.32911H5.25092C4.81193 2.32911 4.4216 2.32911 4.07366 2.33591V1.54427Z" fill="#7F7F7F"/>
<path fill-rule="evenodd" clip-rule="evenodd" d="M11.5299 6.51515C11.5299 6.07616 11.5299 5.68584 11.5231 5.33789H1.07223C1.06543 5.68584 1.06543 6.07616 1.06543 6.51515V7.5616C1.06543 9.53468 1.06543 10.5215 1.67865 11.1342C2.29187 11.7469 3.27815 11.7474 5.25123 11.7474H7.34414C9.31722 11.7474 10.304 11.7474 10.9167 11.1342C11.5294 10.521 11.5299 9.53468 11.5299 7.5616V6.51515ZM7.34414 6.64595C7.10129 6.64595 6.86839 6.74242 6.69668 6.91414C6.52496 7.08586 6.42849 7.31875 6.42849 7.5616V8.60805C6.42849 8.85089 6.52496 9.08379 6.69668 9.25551C6.86839 9.42722 7.10129 9.52369 7.34414 9.52369C7.58698 9.52369 7.81988 9.42722 7.99159 9.25551C8.16331 9.08379 8.25978 8.85089 8.25978 8.60805V7.5616C8.25978 7.31875 8.16331 7.08586 7.99159 6.91414C7.81988 6.74242 7.58698 6.64595 7.34414 6.64595ZM7.34414 7.43079C7.30944 7.43079 7.27617 7.44457 7.25164 7.4691C7.22711 7.49364 7.21333 7.52691 7.21333 7.5616V8.60805C7.21333 8.64274 7.22711 8.67601 7.25164 8.70054C7.27617 8.72508 7.30944 8.73886 7.34414 8.73886C7.37883 8.73886 7.4121 8.72508 7.43663 8.70054C7.46116 8.67601 7.47494 8.64274 7.47494 8.60805V7.5616C7.47494 7.52691 7.46116 7.49364 7.43663 7.4691C7.4121 7.44457 7.37883 7.43079 7.34414 7.43079ZM5.66301 6.67578C5.73473 6.70548 5.79602 6.75579 5.83914 6.82033C5.88226 6.88487 5.90527 6.96075 5.90527 7.03837V9.13128C5.90527 9.23535 5.86392 9.33517 5.79033 9.40876C5.71674 9.48235 5.61692 9.52369 5.51285 9.52369C5.40877 9.52369 5.30896 9.48235 5.23536 9.40876C5.16177 9.33517 5.12043 9.23535 5.12043 9.13128V7.98541L5.00532 8.10052C4.93093 8.16984 4.83254 8.20758 4.73087 8.20578C4.62921 8.20399 4.53221 8.1628 4.46031 8.09091C4.38842 8.01901 4.34723 7.92201 4.34544 7.82035C4.34365 7.71868 4.38138 7.62029 4.4507 7.5459L5.23554 6.76106C5.29038 6.70618 5.36026 6.66879 5.43634 6.65361C5.51243 6.63843 5.59131 6.64614 5.66301 6.67578Z" fill="#7F7F7F"/>
</svg>
