<svg width="14" height="12" viewBox="0 0 14 12" fill="none" xmlns="http://www.w3.org/2000/svg">
<path d="M-0.000177547 11.4546L6.7413 4.36306e-05L13.4828 11.4546H-0.000177547ZM6.7413 10.1719C6.99651 10.1719 7.2136 10.0824 7.39258 9.90345C7.57487 9.72116 7.66602 9.50241 7.66602 9.2472C7.66602 8.992 7.57487 8.7749 7.39258 8.59593C7.2136 8.41363 6.99651 8.32249 6.7413 8.32249C6.48609 8.32249 6.26734 8.41363 6.08505 8.59593C5.90607 8.7749 5.81658 8.992 5.81658 9.2472C5.81658 9.50241 5.90607 9.72116 6.08505 9.90345C6.26734 10.0824 6.48609 10.1719 6.7413 10.1719ZM6.13477 7.19891H7.34783L7.43732 3.81823H6.04528L6.13477 7.19891Z" fill="#FF6261"/>
</svg>
