<svg width="18" height="17" viewBox="0 0 18 17" fill="none" xmlns="http://www.w3.org/2000/svg">
<path d="M1.86511 12.2825L0.932617 16.0124L4.66257 15.0799L15.4664 4.27612C15.816 3.92639 16.0124 3.45211 16.0124 2.95758C16.0124 2.46306 15.816 1.98878 15.4664 1.63905L15.306 1.47866C14.9563 1.12903 14.482 0.932617 13.9875 0.932617C13.4929 0.932617 13.0187 1.12903 12.6689 1.47866L1.86511 12.2825Z" fill="black" stroke="black" stroke-width="1.86498" stroke-linecap="round" stroke-linejoin="round"/>
<path d="M13.3281 5.75439L4.4248 14.6587L1.57324 15.3716L2.28516 12.52L11.1895 3.6167L13.3281 5.75439Z" fill="black" stroke="black" stroke-width="0.932489"/>
<path d="M11.1907 2.95752L13.9881 5.75499L11.1907 2.95752ZM9.32568 16.0124H16.7856H9.32568Z" fill="black"/>
<path d="M11.1907 2.95752L13.9881 5.75499M9.32568 16.0124H16.7856" stroke="black" stroke-width="1.86498" stroke-linecap="round" stroke-linejoin="round"/>
</svg>
