<svg width="11" height="11" viewBox="0 0 11 11" fill="none" xmlns="http://www.w3.org/2000/svg">
<path d="M9.15369 7.32295C8.36037 7.32295 7.6891 7.81115 7.445 8.54344H4.88197C4.88197 8.11627 4.75992 7.75012 4.57684 7.445L8.90959 2.9902C9.09266 2.9902 9.27574 3.05123 9.45881 3.05123C10.3132 3.05123 10.9844 2.37996 10.9844 1.52561C10.9844 0.67127 10.3132 0 9.45881 0C8.60447 0 7.9332 0.67127 7.9332 1.52561C7.9332 1.70869 7.99422 1.95279 8.05524 2.13586L3.78352 6.52963C3.41738 6.22451 2.92918 6.10246 2.44098 6.10246V3.53943C3.17328 3.29533 3.66147 2.62406 3.66147 1.83074C3.66147 0.793319 2.86816 0 1.83074 0C0.793319 0 0 0.793319 0 1.83074C0 2.62406 0.488197 3.29533 1.22049 3.53943V6.40758C0.488197 6.83475 0 7.62807 0 8.48242C0 9.82496 1.09844 10.9234 2.44098 10.9234C3.35635 10.9234 4.14967 10.4352 4.51582 9.70291H7.38397C7.62807 10.3742 8.29934 10.9234 9.09266 10.9234C10.0691 10.9234 10.9234 10.1301 10.9234 9.09266C10.9844 8.11627 10.1301 7.32295 9.15369 7.32295Z" fill="black"/>
</svg>
