<svg width="20" height="34" viewBox="0 0 20 34" fill="none" xmlns="http://www.w3.org/2000/svg">
<path d="M0.328257 13.4284V8.07445C0.328257 7.51314 0.760031 7.03819 1.36451 7.03819H6.71852C6.97758 7.03819 7.23664 7.29726 7.23664 7.55632V9.28342C7.23664 9.58566 6.97758 9.80155 6.71852 9.80155H3.09161V13.4284C3.09161 13.7307 2.83255 13.9466 2.57348 13.9466H0.846386C0.544144 13.9466 0.328257 13.7307 0.328257 13.4284ZM12.7634 7.55632C12.7634 7.29726 12.9792 7.03819 13.2815 7.03819H18.6355C19.1968 7.03819 19.6717 7.51314 19.6717 8.07445V13.4284C19.6717 13.7307 19.4127 13.9466 19.1536 13.9466H17.4265C17.1243 13.9466 16.9084 13.7307 16.9084 13.4284V9.80155H13.2815C12.9792 9.80155 12.7634 9.58566 12.7634 9.28342V7.55632ZM19.1536 19.4733C19.4127 19.4733 19.6717 19.7324 19.6717 19.9914V25.3454C19.6717 25.9499 19.1968 26.3817 18.6355 26.3817H13.2815C12.9792 26.3817 12.7634 26.1658 12.7634 25.8635V24.1365C12.7634 23.8774 12.9792 23.6183 13.2815 23.6183H16.9084V19.9914C16.9084 19.7324 17.1243 19.4733 17.4265 19.4733H19.1536ZM7.23664 25.8635C7.23664 26.1658 6.97758 26.3817 6.71852 26.3817H1.36451C0.760031 26.3817 0.328257 25.9499 0.328257 25.3454V19.9914C0.328257 19.7324 0.544144 19.4733 0.846386 19.4733H2.57348C2.83255 19.4733 3.09161 19.7324 3.09161 19.9914V23.6183H6.71852C6.97758 23.6183 7.23664 23.8774 7.23664 24.1365V25.8635Z" fill="#6B7280"/>
</svg>
