<svg width="16" height="17" viewBox="0 0 16 17" fill="none" xmlns="http://www.w3.org/2000/svg">
<path d="M2.97245 15.0778C2.72856 15.0778 2.54388 14.8567 2.5865 14.6158L3.06138 11.9314H0.392087C0.148574 11.9314 -0.0360001 11.711 0.00597293 11.4703L0.143165 10.6837C0.175989 10.4955 0.338864 10.3582 0.529279 10.3582H3.33576L4.16676 5.63857H1.49746C1.25395 5.63857 1.06938 5.41814 1.11135 5.17747L1.24854 4.39087C1.28137 4.20267 1.44424 4.06536 1.63466 4.06536H4.44114L4.94033 1.24351C4.97355 1.05574 5.13622 0.918945 5.32627 0.918945H6.09798C6.34183 0.918945 6.52653 1.14004 6.48389 1.38098L6.00905 4.06536H10.7128L11.212 1.24351C11.2452 1.05574 11.4078 0.918945 11.5979 0.918945H12.3696C12.6135 0.918945 12.7982 1.14004 12.7555 1.38098L12.2807 4.06536H14.95C15.1935 4.06536 15.3781 4.28579 15.3361 4.52646L15.1989 5.31306C15.1661 5.50126 15.0032 5.63857 14.8128 5.63857H12.0063L11.1753 10.3582H13.8446C14.0881 10.3582 14.2727 10.5786 14.2307 10.8193L14.0935 11.6059C14.0607 11.7941 13.8978 11.9314 13.7074 11.9314H10.9009L10.4017 14.7533C10.3685 14.941 10.2059 15.0778 10.0158 15.0778H9.24412C9.00023 15.0778 8.81553 14.8567 8.85818 14.6158L9.33302 11.9314H4.62929L4.1301 14.7533C4.09688 14.941 3.9342 15.0778 3.74415 15.0778H2.97245ZM5.73501 5.63857L4.90402 10.3582H9.60772L10.4387 5.63857H5.73501Z" fill="black"/>
</svg>
