<svg width="112" height="106" viewBox="0 0 112 106" fill="none" xmlns="http://www.w3.org/2000/svg">
<rect x="1" y="1" width="110" height="104" rx="52" stroke="black" stroke-width="2"/>
<path d="M29 31V35.125C29 46.5375 34.8215 56.52 43.4878 62.075V75H83V69.5C83 62.185 68.96 58.5 61.9268 58.5H61.2683C48.7561 58.5 38.2195 47.5 38.2195 35.125V31M61.9268 31C59.1324 31 56.4523 32.1589 54.4763 34.2218C52.5003 36.2847 51.3902 39.0826 51.3902 42C51.3902 44.9174 52.5003 47.7153 54.4763 49.7782C56.4523 51.8411 59.1324 53 61.9268 53C64.7213 53 67.4013 51.8411 69.3773 49.7782C71.3533 47.7153 72.4634 44.9174 72.4634 42C72.4634 39.0826 71.3533 36.2847 69.3773 34.2218C67.4013 32.1589 64.7213 31 61.9268 31Z" fill="#181C37"/>
</svg>
