<svg width="15" height="14" viewBox="0 0 15 14" fill="none" xmlns="http://www.w3.org/2000/svg">
<path fill-rule="evenodd" clip-rule="evenodd" d="M8.29111 4.56286V5.75076C8.53296 5.37184 8.86632 5.06399 9.25857 4.85736C9.65081 4.65073 10.0885 4.55239 10.5288 4.57196C12.8801 4.57196 13.3885 6.08396 13.3885 8.05096V12.0557H11.2107V8.50526C11.2107 7.65826 11.0446 6.56906 9.76247 6.56906C8.51909 6.56906 8.30676 7.49096 8.30676 8.44226V12.0557H6.13579V4.56286H8.29111ZM4.67736 2.67986C4.67709 2.90177 4.61314 3.11865 4.49353 3.30332C4.37391 3.48799 4.20396 3.63224 4.00497 3.71796C3.80606 3.803 3.58705 3.82525 3.37582 3.78187C3.16458 3.73849 2.97067 3.63144 2.81876 3.47436C2.66656 3.31719 2.56295 3.11723 2.52094 2.89964C2.47894 2.68205 2.50042 2.45655 2.58268 2.25148C2.66495 2.04642 2.80432 1.87095 2.98328 1.74714C3.16224 1.62333 3.3728 1.55672 3.58847 1.55566C3.73181 1.55566 3.87374 1.58477 4.00611 1.64132C4.13849 1.69787 4.25871 1.78074 4.35988 1.88519C4.46104 1.98963 4.54116 2.1136 4.59565 2.24997C4.65013 2.38634 4.67789 2.53243 4.67736 2.67986Z" fill="black"/>
<path d="M4.67778 4.57202H2.5V12.0557H4.67778V4.57202Z" fill="black"/>
</svg>
