<svg width="17" height="16" viewBox="0 0 17 16" fill="none" xmlns="http://www.w3.org/2000/svg">
<path d="M12 7.33333L10 9.33333L8 7.33333M10 2C9.21207 2 8.43185 2.15519 7.7039 2.45672C6.97595 2.75825 6.31451 3.20021 5.75736 3.75736C5.20021 4.31451 4.75825 4.97595 4.45672 5.7039C4.15519 6.43185 4 7.21207 4 8C4 8.78793 4.15519 9.56815 4.45672 10.2961C4.75825 11.0241 5.20021 11.6855 5.75736 12.2426C6.31451 12.7998 6.97595 13.2417 7.7039 13.5433C8.43185 13.8448 9.21207 14 10 14C11.5913 14 13.1174 13.3679 14.2426 12.2426C15.3679 11.1174 16 9.5913 16 8C16 6.4087 15.3679 4.88258 14.2426 3.75736C13.1174 2.63214 11.5913 2 10 2Z" stroke="#AFAEAC" stroke-width="1.5" stroke-linecap="round" stroke-linejoin="round"/>
</svg>
