<svg width="12" height="11" viewBox="0 0 12 11" fill="none" xmlns="http://www.w3.org/2000/svg">
<path fill-rule="evenodd" clip-rule="evenodd" d="M0.0416492 1.78936C-4.09202e-08 1.99148 0 2.23423 0 2.71864V6.59065C0 8.66177 -5.45602e-08 9.6976 0.697328 10.3407C1.39466 10.9839 2.51621 10.9844 4.75992 10.9844H7.13988C9.38358 10.9844 10.5057 10.9844 11.2025 10.3407C11.8992 9.69705 11.8998 8.66177 11.8998 6.59065V5.38127C11.8998 3.93572 11.8998 3.21239 11.4417 2.74281C11.3996 2.69948 11.3551 2.65823 11.3084 2.61924C10.7997 2.19688 10.0161 2.19688 8.45004 2.19688H8.22752C7.54149 2.19688 7.19818 2.19688 6.87808 2.11285C6.70241 2.0665 6.53312 2.00163 6.37353 1.91953C6.08317 1.77069 5.84042 1.54606 5.35491 1.09844L5.02766 0.796371C4.86463 0.645884 4.78372 0.57119 4.69804 0.505284C4.32954 0.223335 3.87751 0.0504975 3.40096 0.00933674C3.29029 -2.30176e-08 3.17486 0 2.9452 0C2.41982 0 2.15743 -3.75102e-08 1.93848 0.0384454C1.46834 0.120402 1.03588 0.331255 0.69751 0.643496C0.359143 0.955736 0.130583 1.35542 0.0416492 1.78936ZM6.09864 4.39377C6.09864 4.28452 6.14566 4.17975 6.22935 4.1025C6.31303 4.02525 6.42653 3.98185 6.54489 3.98185H9.51983C9.63818 3.98185 9.75169 4.02525 9.83537 4.1025C9.91906 4.17975 9.96608 4.28452 9.96608 4.39377C9.96608 4.50302 9.91906 4.60779 9.83537 4.68504C9.75169 4.76229 9.63818 4.80569 9.51983 4.80569H6.54489C6.42653 4.80569 6.31303 4.76229 6.22935 4.68504C6.14566 4.60779 6.09864 4.50302 6.09864 4.39377Z" fill="#72767D"/>
</svg>
