<svg width="13" height="10" viewBox="0 0 13 10" fill="none" xmlns="http://www.w3.org/2000/svg">
<path d="M1.30606 8.47204H8.15632C8.30182 8.47223 8.44176 8.53589 8.54756 8.65003C8.65336 8.76417 8.71703 8.92016 8.72556 9.08614C8.73409 9.25212 8.68683 9.41556 8.59344 9.54306C8.50006 9.67056 8.36759 9.7525 8.22311 9.77214L8.15632 9.77671H1.30606C1.16056 9.77652 1.02062 9.71286 0.914816 9.59872C0.809016 9.48458 0.745349 9.32858 0.736822 9.1626C0.728295 8.99662 0.775552 8.83319 0.868939 8.70569C0.962325 8.57819 1.09479 8.49624 1.23927 8.47661L1.30606 8.47204ZM1.30606 5.86271H11.5814C11.7269 5.86289 11.8669 5.92656 11.9727 6.0407C12.0785 6.15483 12.1422 6.31083 12.1507 6.47681C12.1592 6.64279 12.112 6.80623 12.0186 6.93373C11.9252 7.06123 11.7927 7.14317 11.6482 7.16281L11.5814 7.16737H1.30606C1.16056 7.16719 1.02062 7.10353 0.914816 6.98939C0.809016 6.87525 0.745349 6.71925 0.736822 6.55327C0.728295 6.38729 0.775552 6.22385 0.868939 6.09635C0.962325 5.96885 1.09479 5.88691 1.23927 5.86727L1.30606 5.86271ZM1.30606 3.25338H11.5814C11.7269 3.25356 11.8669 3.31723 11.9727 3.43136C12.0785 3.5455 12.1422 3.7015 12.1507 3.86748C12.1592 4.03346 12.112 4.1969 12.0186 4.3244C11.9252 4.4519 11.7927 4.53384 11.6482 4.55348L11.5814 4.55804H1.30606C1.16056 4.55786 1.02062 4.49419 0.914816 4.38005C0.809016 4.26592 0.745349 4.10992 0.736822 3.94394C0.728295 3.77796 0.775552 3.61452 0.868939 3.48702C0.962325 3.35952 1.09479 3.27758 1.23927 3.25794L1.30606 3.25338ZM1.30606 0.644043H11.5814C11.7269 0.644227 11.8669 0.707893 11.9727 0.822031C12.0785 0.936169 12.1422 1.09217 12.1507 1.25815C12.1592 1.42413 12.112 1.58756 12.0186 1.71506C11.9252 1.84257 11.7927 1.92451 11.6482 1.94414L11.5814 1.94871H1.30606C1.16056 1.94852 1.02062 1.88486 0.914816 1.77072C0.809016 1.65658 0.745349 1.50059 0.736822 1.33461C0.728295 1.16863 0.775552 1.00519 0.868939 0.877688C0.962325 0.750187 1.09479 0.668247 1.23927 0.648609L1.30606 0.644043Z" fill="#7F7F7F"/>
</svg>
