<svg width="7" height="8" viewBox="0 0 7 8" fill="none" xmlns="http://www.w3.org/2000/svg">
<path d="M3.10306 1.37914H2.06871L3.44785 0L4.82699 1.37914H3.79263V2.90654C3.53404 3.06514 3.30304 3.26166 3.10306 3.48922V1.37914ZM6.8957 3.44785L5.51656 2.06871V3.10306C4.91769 3.07844 4.33242 3.28591 3.88277 3.68224C3.43313 4.07857 3.15382 4.63316 3.10306 5.23039C2.84454 5.32218 2.63295 5.51272 2.51468 5.76025C2.3964 6.00778 2.3811 6.29211 2.47211 6.55091C2.5639 6.80944 2.75444 7.02103 3.00197 7.1393C3.24951 7.25757 3.53383 7.27288 3.79263 7.18187C4.05093 7.08977 4.26228 6.89919 4.38051 6.65176C4.49873 6.40433 4.51422 6.12016 4.42359 5.86134C4.32015 5.56483 4.0857 5.33382 3.79263 5.23039C3.95468 3.85125 5.33382 3.78229 5.49932 3.78229V4.81664L6.8957 3.44785ZM2.97549 3.65127C2.51803 3.29816 1.95703 3.1055 1.37914 3.10306V2.06871L0 3.44785L1.37914 4.82699V3.79263C1.84115 3.80298 2.28592 3.96503 2.63416 4.27533C2.72035 4.05467 2.83413 3.84435 2.97549 3.65127Z" fill="black"/>
</svg>
