<svg width="18" height="18" viewBox="0 0 18 18" fill="none" xmlns="http://www.w3.org/2000/svg">
<path d="M8.69589 1.44971C12.6982 1.44971 15.9426 4.69404 15.9426 8.69638C15.9426 12.6987 12.6982 15.943 8.69589 15.943C4.69355 15.943 1.44922 12.6987 1.44922 8.69638C1.44922 4.69404 4.69355 1.44971 8.69589 1.44971ZM8.69589 2.89904C7.15834 2.89904 5.68376 3.50983 4.59655 4.59704C3.50934 5.68425 2.89855 7.15883 2.89855 8.69638C2.89855 10.2339 3.50934 11.7085 4.59655 12.7957C5.68376 13.8829 7.15834 14.4937 8.69589 14.4937C10.2334 14.4937 11.708 13.8829 12.7952 12.7957C13.8824 11.7085 14.4932 10.2339 14.4932 8.69638C14.4932 7.15883 13.8824 5.68425 12.7952 4.59704C11.708 3.50983 10.2334 2.89904 8.69589 2.89904ZM8.69589 11.595C8.88808 11.595 9.0724 11.6714 9.2083 11.8073C9.34421 11.9432 9.42055 12.1275 9.42055 12.3197C9.42055 12.5119 9.34421 12.6962 9.2083 12.8321C9.0724 12.968 8.88808 13.0444 8.69589 13.0444C8.50369 13.0444 8.31937 12.968 8.18347 12.8321C8.04757 12.6962 7.97122 12.5119 7.97122 12.3197C7.97122 12.1275 8.04757 11.9432 8.18347 11.8073C8.31937 11.6714 8.50369 11.595 8.69589 11.595ZM8.69589 4.71071C9.30626 4.71073 9.89758 4.92329 10.3683 5.31189C10.8389 5.70049 11.1596 6.24087 11.2752 6.8402C11.3908 7.43953 11.294 8.0604 11.0016 8.59616C10.7092 9.13192 10.2393 9.54914 9.67274 9.77613C9.58882 9.80699 9.51317 9.85684 9.45171 9.92179C9.41983 9.95802 9.41476 10.0044 9.41548 10.0522L9.42055 10.1457C9.42035 10.3304 9.34962 10.5081 9.22283 10.6424C9.09604 10.7767 8.92274 10.8575 8.73836 10.8683C8.55397 10.8792 8.37241 10.8192 8.23077 10.7006C8.08913 10.5821 7.99811 10.4139 7.97629 10.2305L7.97122 10.1457V9.96454C7.97122 9.129 8.64516 8.62753 9.13359 8.43115C9.33237 8.35177 9.50578 8.21974 9.63519 8.04924C9.7646 7.87874 9.84512 7.67621 9.86811 7.4634C9.89109 7.25058 9.85567 7.03553 9.76566 6.84133C9.67564 6.64713 9.53442 6.48112 9.35717 6.36112C9.17992 6.24112 8.97333 6.17168 8.75959 6.16024C8.54585 6.1488 8.33302 6.19579 8.14398 6.29619C7.95493 6.39658 7.7968 6.54657 7.68657 6.73005C7.57633 6.91353 7.51816 7.12358 7.5183 7.33763C7.5183 7.52982 7.44195 7.71414 7.30605 7.85004C7.17015 7.98594 6.98583 8.06229 6.79364 8.06229C6.60144 8.06229 6.41712 7.98594 6.28122 7.85004C6.14532 7.71414 6.06897 7.52982 6.06897 7.33763C6.06897 6.64092 6.34573 5.97276 6.83838 5.48011C7.33102 4.98747 7.99919 4.71071 8.69589 4.71071Z" fill="black"/>
</svg>
