<svg width="25" height="24" viewBox="0 0 25 24" fill="none" xmlns="http://www.w3.org/2000/svg">
<path d="M12.5 15V13.5C12.5 13.0833 12.646 12.7293 12.938 12.438C13.23 12.1467 13.584 12.0007 14 12H15.5L12.5 15ZM12.5 19.025V16.9L17.4 12H19.525L12.5 19.025ZM12.55 20.9L21.375 12.05C21.6417 12.1167 21.871 12.2457 22.063 12.437C22.255 12.6283 22.384 12.8577 22.45 13.125L13.6 21.95C13.3333 21.8667 13.1127 21.7377 12.938 21.563C12.7633 21.3883 12.634 21.1673 12.55 20.9ZM15.475 22L22.5 14.975V17.1L17.6 22H15.475ZM19.5 22L22.5 19V20.5C22.5 20.9167 22.3543 21.271 22.063 21.563C21.7717 21.855 21.4173 22.0007 21 22H19.5ZM21.275 10H19.2C18.7667 8.53333 17.9417 7.33333 16.725 6.4C15.5083 5.46667 14.1 5 12.5 5C10.55 5 8.89567 5.67933 7.537 7.038C6.17833 8.39667 5.49933 10.0507 5.5 12C5.5 13.2 5.771 14.3 6.313 15.3C6.855 16.3 7.584 17.1167 8.5 17.75V15H10.5V21H4.5V19H6.85C5.81667 18.1667 5 17.146 4.4 15.938C3.8 14.73 3.5 13.4173 3.5 12C3.5 10.75 3.73767 9.57933 4.213 8.488C4.68833 7.39667 5.32967 6.44667 6.137 5.638C6.94433 4.82933 7.89433 4.18767 8.987 3.713C10.0797 3.23833 11.2507 3.00067 12.5 3C14.65 3 16.5377 3.66267 18.163 4.988C19.7883 6.31333 20.8257 7.984 21.275 10Z" fill="black"/>
</svg>
