<svg width="16" height="16" viewBox="0 0 16 16" fill="none" xmlns="http://www.w3.org/2000/svg">
<path d="M10.6665 14V12.6667C10.6665 11.4093 10.6665 10.7813 10.2758 10.3907C9.88517 10 9.25717 10 7.99984 10H7.33317C6.07584 10 5.44784 10 5.05717 10.3907C4.6665 10.7813 4.6665 11.4093 4.6665 12.6667V14" stroke="black" stroke-width="0.666667"/>
<path d="M4.6665 5.3335H7.99984" stroke="black" stroke-width="0.666667" stroke-linecap="round"/>
<path d="M2 6C2 4.11467 2 3.17133 2.586 2.586C3.17133 2 4.11467 2 6 2H10.7813C11.0533 2 11.19 2 11.312 2.05067C11.434 2.10133 11.5313 2.19733 11.724 2.39067L13.6093 4.276C13.8027 4.46933 13.8987 4.56533 13.9493 4.688C14 4.81 14 4.94667 14 5.21867V10C14 11.8853 14 12.8287 13.414 13.414C12.8287 14 11.8853 14 10 14H6C4.11467 14 3.17133 14 2.586 13.414C2 12.8287 2 11.8853 2 10V6Z" stroke="black" stroke-width="0.666667"/>
</svg>
