<svg width="16" height="16" viewBox="0 0 16 16" fill="none" xmlns="http://www.w3.org/2000/svg">
<path d="M2.35107 7.18774C2.00449 4.36784 4.37784 1.99448 7.19775 2.34106C9.06442 2.56773 10.611 4.04828 10.9243 5.90161C11.1508 7.25477 10.7379 8.52794 9.93799 9.46118L10.1245 9.64087H10.6509L13.478 12.4807C13.7514 12.754 13.7514 13.2015 13.478 13.4749C13.2048 13.748 12.7582 13.7478 12.4849 13.4749L9.65088 10.6409V10.1145L9.47119 9.92798C8.53795 10.7279 7.26478 11.1408 5.91162 10.9143C4.05829 10.601 2.57774 9.05441 2.35107 7.18774ZM6.65088 3.64087C4.99113 3.64104 3.65105 4.98112 3.65088 6.64087C3.65088 8.30076 4.99102 9.6407 6.65088 9.64087C8.31088 9.64087 9.65088 8.30087 9.65088 6.64087C9.65071 4.98101 8.31077 3.64087 6.65088 3.64087Z" fill="black"/>
</svg>
