<svg width="15" height="15" viewBox="0 0 15 15" fill="none" xmlns="http://www.w3.org/2000/svg">
<g clip-path="url(#clip0_989_5390)">
<path d="M4.48269 10.7585V8.0689H7.17232V10.7585H4.48269ZM5.37923 8.96544V9.86199H6.27578V8.96544H5.37923ZM7.17232 3.58618V6.27581H4.48269V3.58618H7.17232ZM6.27578 5.37927V4.48272H5.37923V5.37927H6.27578ZM9.86195 4.48272V5.37927H8.06886V4.48272H9.86195ZM1.79306 0H12.5516V14.3447H3.82429L4.72083 13.4482H11.655V0.896544H2.6896V8.7273L2.26234 8.30004L1.79306 8.76232V0ZM8.06886 9.86199V8.96544H9.86195V9.86199H8.06886ZM5.37923 12.5516H1.75103L2.89272 13.6933L2.26234 14.3237L0.0419922 12.1033L2.26234 9.883L2.89272 10.5134L1.75103 11.6551H5.37923V12.5516Z" fill="black"/>
</g>
<defs>
<clipPath id="clip0_989_5390">
<rect width="14.3447" height="14.3447" fill="white"/>
</clipPath>
</defs>
</svg>
