<svg width="16" height="16" viewBox="0 0 16 16" fill="none" xmlns="http://www.w3.org/2000/svg">
<path d="M13.1769 5.32312L9.67688 1.82313C9.65364 1.79992 9.62606 1.78151 9.59571 1.76897C9.56536 1.75642 9.53284 1.74997 9.5 1.75H3.5C3.30109 1.75 3.11032 1.82902 2.96967 1.96967C2.82902 2.11032 2.75 2.30109 2.75 2.5V7C2.75 7.0663 2.77634 7.12989 2.82322 7.17678C2.87011 7.22366 2.9337 7.25 3 7.25C3.0663 7.25 3.12989 7.22366 3.17678 7.17678C3.22366 7.12989 3.25 7.0663 3.25 7V2.5C3.25 2.4337 3.27634 2.37011 3.32322 2.32322C3.37011 2.27634 3.4337 2.25 3.5 2.25H9.25V5.5C9.25 5.5663 9.27634 5.62989 9.32322 5.67678C9.37011 5.72366 9.4337 5.75 9.5 5.75H12.75V13.5C12.75 13.5663 12.7237 13.6299 12.6768 13.6768C12.6299 13.7237 12.5663 13.75 12.5 13.75H11C10.9337 13.75 10.8701 13.7763 10.8232 13.8232C10.7763 13.8701 10.75 13.9337 10.75 14C10.75 14.0663 10.7763 14.1299 10.8232 14.1768C10.8701 14.2237 10.9337 14.25 11 14.25H12.5C12.6989 14.25 12.8897 14.171 13.0303 14.0303C13.171 13.8897 13.25 13.6989 13.25 13.5V5.5C13.25 5.46716 13.2436 5.43464 13.231 5.40429C13.2185 5.37394 13.2001 5.34636 13.1769 5.32312ZM9.75 2.60313L12.3962 5.25H9.75V2.60313ZM8.99 12.2375C8.97439 12.393 8.92468 12.5431 8.84442 12.6772C8.76415 12.8112 8.6553 12.9259 8.52563 13.0131C8.25125 13.195 7.90063 13.2487 7.57438 13.2487C7.27506 13.2466 6.97717 13.2073 6.6875 13.1319C6.62587 13.1122 6.57427 13.0694 6.54355 13.0124C6.51284 12.9555 6.5054 12.8888 6.5228 12.8265C6.5402 12.7642 6.58109 12.711 6.63686 12.6782C6.69264 12.6454 6.75895 12.6355 6.82188 12.6506C7.08563 12.7238 7.85687 12.8562 8.24875 12.5956C8.31871 12.5483 8.37705 12.4858 8.41938 12.4127C8.4617 12.3397 8.48692 12.258 8.49312 12.1737C8.545 11.7706 8.21938 11.6306 7.51562 11.4275C6.91062 11.2525 6.15812 11.035 6.25688 10.2544C6.27201 10.1027 6.32026 9.95616 6.39824 9.82516C6.47621 9.69416 6.582 9.58188 6.70813 9.49625C6.99312 9.30438 7.39563 9.22375 7.90188 9.2575C8.1227 9.27206 8.34186 9.30573 8.55688 9.35812C8.62102 9.37512 8.6758 9.41689 8.70914 9.47427C8.74249 9.53164 8.75168 9.59991 8.73469 9.66406C8.7177 9.72821 8.67592 9.78298 8.61854 9.81633C8.56117 9.84968 8.4929 9.85887 8.42875 9.84188C8.16062 9.77125 7.37813 9.64687 6.9875 9.91125C6.92006 9.95648 6.86387 10.0166 6.82325 10.0869C6.78262 10.1572 6.75864 10.2359 6.75313 10.3169C6.71187 10.64 6.99625 10.7544 7.65438 10.9469C8.26625 11.125 9.1025 11.365 8.99 12.2375ZM4.75 9.5V11.875C4.75 12.2397 4.60513 12.5894 4.34727 12.8473C4.08941 13.1051 3.73967 13.25 3.375 13.25C3.01033 13.25 2.66059 13.1051 2.40273 12.8473C2.14487 12.5894 2 12.2397 2 11.875C2 11.8087 2.02634 11.7451 2.07322 11.6982C2.12011 11.6513 2.1837 11.625 2.25 11.625C2.3163 11.625 2.37989 11.6513 2.42678 11.6982C2.47366 11.7451 2.5 11.8087 2.5 11.875C2.5 12.1071 2.59219 12.3296 2.75628 12.4937C2.92038 12.6578 3.14294 12.75 3.375 12.75C3.60706 12.75 3.82962 12.6578 3.99372 12.4937C4.15781 12.3296 4.25 12.1071 4.25 11.875V9.5C4.25 9.4337 4.27634 9.37011 4.32322 9.32322C4.37011 9.27634 4.4337 9.25 4.5 9.25C4.5663 9.25 4.62989 9.27634 4.67678 9.32322C4.72366 9.37011 4.75 9.4337 4.75 9.5Z" fill="black"/>
</svg>
