<svg width="13" height="13" viewBox="0 0 13 13" fill="none" xmlns="http://www.w3.org/2000/svg">
<mask id="mask0_284_3917" style="mask-type:luminance" maskUnits="userSpaceOnUse" x="0" y="0" width="13" height="13">
<path d="M0.581543 0.872292C0.581543 0.79518 0.612175 0.721227 0.666701 0.666701C0.721227 0.612175 0.79518 0.581543 0.872292 0.581543H3.77978C3.85689 0.581543 3.93085 0.612175 3.98537 0.666701C4.0399 0.721227 4.07053 0.79518 4.07053 0.872292V11.3393C4.07053 11.4164 4.0399 11.4903 3.98537 11.5448C3.93085 11.5994 3.85689 11.63 3.77978 11.63H0.872292C0.79518 11.63 0.721227 11.5994 0.666701 11.5448C0.612175 11.4903 0.581543 11.4164 0.581543 11.3393V0.872292Z" fill="#555555" stroke="white" stroke-width="1.163" stroke-linejoin="round"/>
<path d="M2.32613 9.88565C2.64728 9.88565 2.90762 9.62531 2.90762 9.30415C2.90762 8.983 2.64728 8.72266 2.32613 8.72266C2.00497 8.72266 1.74463 8.983 1.74463 9.30415C1.74463 9.62531 2.00497 9.88565 2.32613 9.88565Z" fill="white"/>
<path d="M2.32568 2.32617V6.39666" stroke="white" stroke-width="1.163" stroke-linecap="round" stroke-linejoin="round"/>
<path d="M6.0997 1.96496L9.02463 1.23373C9.09902 1.21519 9.17773 1.22678 9.24362 1.26599C9.30951 1.30519 9.35724 1.36884 9.37644 1.44307L11.5571 9.8931C11.5666 9.93024 11.5688 9.9689 11.5634 10.0069C11.558 10.0448 11.5451 10.0814 11.5255 10.1143C11.5059 10.1473 11.48 10.1761 11.4492 10.199C11.4184 10.2219 11.3835 10.2385 11.3463 10.2478L8.42132 10.979C8.34689 10.9977 8.26811 10.9861 8.20215 10.9469C8.1362 10.9077 8.08842 10.844 8.06923 10.7697L5.88861 2.31968C5.87903 2.28252 5.87689 2.24384 5.88233 2.20585C5.88776 2.16787 5.90067 2.13134 5.92029 2.09836C5.93991 2.06539 5.96587 2.03662 5.99666 2.01373C6.02745 1.99083 6.06247 1.97426 6.0997 1.96496Z" fill="#555555" stroke="white" stroke-width="1.163" stroke-linecap="round" stroke-linejoin="round"/>
<path d="M9.30367 9.01358C9.62482 9.01358 9.88516 8.75324 9.88516 8.43208C9.88516 8.11093 9.62482 7.85059 9.30367 7.85059C8.98251 7.85059 8.72217 8.11093 8.72217 8.43208C8.72217 8.75324 8.98251 9.01358 9.30367 9.01358Z" fill="white"/>
<path d="M8.14062 3.78027L8.8675 6.68776" stroke="white" stroke-width="1.163" stroke-linecap="round" stroke-linejoin="round"/>
</mask>
<g mask="url(#mask0_284_3917)">
<path d="M-0.872559 -0.87207H13.0834V13.0839H-0.872559V-0.87207Z" fill="#72767D"/>
</g>
</svg>
