<svg width="9" height="8" viewBox="0 0 9 8" fill="none" xmlns="http://www.w3.org/2000/svg">
<path d="M2.98936 7.60906C3.48808 6.75252 4.62938 6.65156 5.2793 7.30621C5.42471 7.45263 5.49761 7.52584 5.56202 7.53431C5.62643 7.54279 6.03065 7.3116 6.17413 7.22915C6.3207 7.14553 6.72647 6.91319 6.75192 6.85193C6.77738 6.79143 6.75077 6.6874 6.69715 6.4801C6.50314 5.72605 6.97409 4.93231 7.72622 4.72771C7.92756 4.67299 8.02823 4.64564 8.06795 4.59323C8.10768 4.54083 8.10768 4.08038 8.10768 3.912C8.10768 3.74362 8.10768 3.28279 8.06795 3.23039C8.02823 3.17799 7.92756 3.15063 7.72622 3.09591C6.97409 2.89131 6.50276 2.09796 6.69638 1.34352C6.75038 1.13622 6.77661 1.03257 6.75115 0.971695C6.7257 0.910816 6.31993 0.678474 6.17375 0.594476C6.03027 0.512405 5.62605 0.280447 5.56125 0.28931C5.49683 0.298172 5.42432 0.371381 5.27891 0.517414C5.00594 0.789529 4.63606 0.942353 4.25042 0.942353C3.86479 0.942353 3.49491 0.789529 3.22194 0.517414C3.07653 0.370996 3.00363 0.297786 2.93922 0.28931C2.8748 0.280833 2.47058 0.512405 2.3271 0.594476C2.18053 0.678474 1.77477 0.910816 1.74931 0.971695C1.72386 1.03257 1.75047 1.13622 1.80408 1.34352C1.99809 2.09757 1.52715 2.89131 0.775018 3.09591C0.57368 3.15063 0.47301 3.17799 0.433282 3.23077C0.393555 3.28241 0.393555 3.74285 0.393555 3.91162C0.393555 4.08038 0.393555 4.54045 0.433282 4.59285C0.47301 4.64525 0.57368 4.67261 0.775018 4.72771C0.777332 4.72771 0.779647 4.72822 0.781961 4.72925" stroke="black" stroke-width="0.577966" stroke-linecap="round"/>
<path d="M0.58213 6.33154C0.998693 5.9154 2.41501 4.51518 2.55386 4.35335C2.70043 4.18227 2.58163 3.95109 2.6526 3.2348C2.68654 2.88802 2.76137 2.6287 2.97505 2.43527C3.22962 2.19484 3.4379 2.19484 4.15531 2.17866C4.78016 2.19484 4.85421 2.12548 4.91901 2.28732C4.9653 2.40291 4.82644 2.47226 4.65982 2.65721C4.28954 3.02711 4.072 3.21206 4.05117 3.32766C3.90075 3.83588 4.49319 4.13604 4.81719 3.81238C4.93984 3.69023 5.50683 3.1192 5.56237 3.07296C5.60403 3.03597 5.70354 3.0379 5.75214 3.09608C5.79379 3.13693 5.79842 3.14232 5.79379 3.32727C5.78955 3.49835 5.79148 3.74418 5.79187 3.99771C5.79264 4.32561 5.77528 4.69089 5.63643 4.87545C5.35872 5.29159 4.89587 5.3147 4.47931 5.3332C4.08589 5.35632 3.76189 5.3147 3.66007 5.38868C3.57675 5.4303 3.13705 5.89228 2.60477 6.42401L1.65594 7.37149C0.869096 7.9957 0.00357087 7.02471 0.58213 6.33115V6.33154Z" stroke="black" stroke-width="0.577966" stroke-linecap="round"/>
</svg>
