<svg width="109" height="106" viewBox="0 0 109 106" fill="none" xmlns="http://www.w3.org/2000/svg">
<rect width="108.774" height="105.774" rx="11.1097" fill="#FBEB6B"/>
<path d="M18.6062 71.8872C17.7382 71.8872 17.3043 71.4207 17.3043 70.4876C17.3043 69.3376 17.3585 68.1876 17.467 67.0375C17.5972 65.8658 17.684 64.7158 17.7274 63.5874C17.8359 61.0704 17.9227 58.5425 17.9878 56.0037C18.0529 53.465 18.0854 50.9371 18.0854 48.42C18.0854 45.2086 17.9986 42.0081 17.825 38.8184C17.6514 35.6287 17.5321 32.4389 17.467 29.2492V28.5657C17.467 28.3487 17.4996 28.0667 17.5647 27.7195C17.6297 27.3723 17.8142 27.1987 18.118 27.1987C18.4001 27.1987 18.693 27.3397 18.9968 27.6218C19.3222 27.9039 19.5718 28.1318 19.7454 28.3053C22.2841 30.8224 24.7469 33.4262 27.1338 36.1169C29.5206 38.7858 31.8967 41.4656 34.2618 44.1563C35.3901 45.4148 36.5076 46.7059 37.6143 48.0295C38.7426 49.3531 39.9035 50.6116 41.0969 51.805C41.1403 51.8484 41.2054 51.8918 41.2922 51.9352H41.6502C41.6502 51.9352 42.1276 51.4362 43.0823 50.438C44.0588 49.4182 45.3173 48.0946 46.8579 46.4672C48.3985 44.8398 50.0693 43.0822 51.8703 41.1944C53.6713 39.3066 55.4289 37.4622 57.1431 35.6612C58.879 33.8602 60.3979 32.2871 61.6998 30.9417C63.0235 29.5964 63.9565 28.6634 64.499 28.1426C64.716 27.9256 64.9329 27.7303 65.1499 27.5567C65.3669 27.3831 65.6165 27.253 65.8985 27.1662C65.9419 27.1662 65.9745 27.1662 65.9962 27.1662C66.0396 27.1445 66.0721 27.1336 66.0938 27.1336C66.4627 27.1336 66.658 27.3397 66.6797 27.752C66.7231 28.1643 66.7448 28.5006 66.7448 28.761V29.1516C66.6797 32.1026 66.5603 35.0536 66.3868 38.0047C66.2349 40.9557 66.1589 43.9176 66.1589 46.8903C66.1589 49.5375 66.1806 52.1956 66.224 54.8646C66.2891 57.5335 66.3868 60.1916 66.5169 62.8388C66.582 64.1408 66.6688 65.4535 66.7773 66.7772C66.9075 68.0791 66.9726 69.381 66.9726 70.6829C66.9726 71.4858 66.5495 71.8872 65.7032 71.8872H53.3675C52.4779 71.8872 52.0222 71.4532 52.0005 70.5853C52.0005 70.39 51.9897 69.9886 51.968 69.381C51.968 68.7734 51.9571 68.1116 51.9354 67.3956C51.9354 66.6578 51.9246 66.0069 51.9029 65.4427C51.8812 64.8785 51.8486 64.553 51.8052 64.4662L51.675 64.4012C51.5882 64.4012 51.2736 64.6832 50.7311 65.2474C50.1887 65.7899 49.516 66.4842 48.7132 67.3305C47.932 68.1767 47.1291 69.0447 46.3046 69.9343C45.5017 70.824 44.7857 71.6051 44.1564 72.2778C43.5272 72.9504 43.1149 73.3844 42.9196 73.5797C42.7894 73.7099 42.6484 73.8292 42.4965 73.9377C42.3446 74.0462 42.171 74.1005 41.9757 74.1005C41.7804 74.1005 41.6068 74.0462 41.4549 73.9377C41.3247 73.8509 41.1837 73.7424 41.0318 73.6123C40.8148 73.417 40.3808 73.0047 39.7299 72.3754C39.1006 71.7462 38.3629 71.0193 37.5166 70.1947C36.6921 69.3485 35.8784 68.5348 35.0755 67.7536C34.2727 66.9507 33.5783 66.2889 32.9924 65.7682C32.4283 65.2474 32.1028 64.987 32.016 64.987C31.9509 64.987 31.9075 65.063 31.8858 65.2149C31.8641 65.345 31.8533 65.4318 31.8533 65.4752L31.7231 70.5853C31.7014 71.4532 31.2457 71.8872 30.356 71.8872H18.6062ZM75.4104 66.4191C75.4104 65.2908 75.7684 64.3144 76.4845 63.4898C77.2222 62.6436 78.1227 61.9926 79.186 61.5369C80.2492 61.0595 81.2799 60.8209 82.278 60.8209C83.2762 60.8209 84.3177 61.0595 85.4026 61.5369C86.4876 61.9926 87.3989 62.6436 88.1367 63.4898C88.8961 64.3144 89.2759 65.2908 89.2759 66.4191C89.2759 67.6126 88.907 68.6216 88.1692 69.4461C87.4532 70.249 86.5527 70.8565 85.4677 71.2688C84.3828 71.6811 83.3196 71.8872 82.278 71.8872C81.2365 71.8872 80.1841 71.6811 79.1209 71.2688C78.0576 70.8348 77.168 70.2164 76.4519 69.4136C75.7576 68.6107 75.4104 67.6126 75.4104 66.4191Z" fill="#181C37"/>
</svg>
